<?xml version="1.0" ?><!DOCTYPE svg  PUBLIC '-//W3C//DTD SVG 1.1//EN'  'http://www.w3.org/Graphics/SVG/1.1/DTD/svg11.dtd'><svg enable-background="new 0 0 64 64" height="64px" id="Google" version="1.1" viewBox="0 0 64 64" width="64px" xml:space="preserve" xmlns="http://www.w3.org/2000/svg" xmlns:xlink="http://www.w3.org/1999/xlink"><linearGradient gradientTransform="matrix(1 0 0 -1 -822 -1026)" gradientUnits="userSpaceOnUse" id="Circle_Shadow_1_" x1="886.0303" x2="854.0302" y1="-1089.9985" y2="-1057.9985"><stop offset="0.3163" style="stop-color:#FFFFFF;stop-opacity:0"/><stop offset="0.3508" style="stop-color:#E9E9E9;stop-opacity:0.0504"/><stop offset="0.4543" style="stop-color:#ACACAC;stop-opacity:0.2018"/><stop offset="0.5572" style="stop-color:#787878;stop-opacity:0.3523"/><stop offset="0.6569" style="stop-color:#4D4D4D;stop-opacity:0.4981"/><stop offset="0.7528" style="stop-color:#2B2B2B;stop-opacity:0.6385"/><stop offset="0.8441" style="stop-color:#131313;stop-opacity:0.7719"/><stop offset="0.9286" style="stop-color:#050505;stop-opacity:0.8956"/><stop offset="1" style="stop-color:#000000"/></linearGradient><polygon enable-background="new    " fill="url(#Circle_Shadow_1_)" id="Circle_Shadow" opacity="0.2" points="64.029,64   64.029,30.059 49,15.029 15.059,48.971 30.088,64 "/><circle cx="32" cy="32" fill="#1369EA" id="Circle" r="24"/><g id="g_shadow"><g><defs><circle cx="32.029" cy="32" id="SVGID_1_" r="24"/></defs><clipPath id="SVGID_2_"><use overflow="visible" xlink:href="#SVGID_1_"/></clipPath><linearGradient gradientTransform="matrix(1 0 0 -1 -274 -299)" gradientUnits="userSpaceOnUse" id="SVGID_3_" x1="349.1475" x2="297.7305" y1="-372.2285" y2="-320.8115"><stop offset="0.5663" style="stop-color:#000000;stop-opacity:0"/><stop offset="0.5836" style="stop-color:#000000;stop-opacity:0.0398"/><stop offset="1" style="stop-color:#000000"/></linearGradient><path clip-path="url(#SVGID_2_)" d="M72.357,68.583    c-0.035-0.036-0.07-0.071-0.106-0.106c-0.036-0.037-0.071-0.072-0.108-0.108c-0.029-0.03-0.061-0.062-0.091-0.091    c-0.04-0.041-0.081-0.082-0.122-0.123c-0.033-0.033-0.066-0.066-0.102-0.102s-0.071-0.07-0.105-0.105    c-0.035-0.036-0.072-0.071-0.106-0.106c-0.035-0.036-0.071-0.071-0.106-0.106c-0.035-0.034-0.07-0.07-0.105-0.105    c-0.038-0.038-0.076-0.076-0.115-0.113c-0.03-0.031-0.063-0.063-0.092-0.093c-0.036-0.037-0.072-0.073-0.108-0.108    c-0.036-0.037-0.073-0.073-0.108-0.109s-0.071-0.071-0.106-0.105c-0.035-0.037-0.071-0.072-0.106-0.106    c-0.035-0.036-0.07-0.071-0.105-0.106c-0.037-0.037-0.074-0.074-0.112-0.111c-0.03-0.03-0.062-0.062-0.092-0.092    c-0.039-0.039-0.078-0.08-0.118-0.119c-0.033-0.033-0.068-0.067-0.104-0.103c-0.034-0.036-0.07-0.071-0.105-0.106    s-0.07-0.07-0.105-0.105c-0.037-0.036-0.071-0.072-0.107-0.107s-0.072-0.072-0.109-0.107c-0.031-0.032-0.063-0.065-0.097-0.098    c-0.037-0.037-0.073-0.076-0.112-0.112c-0.035-0.035-0.07-0.07-0.104-0.105c-0.035-0.036-0.071-0.071-0.106-0.106    s-0.07-0.07-0.105-0.105s-0.071-0.07-0.106-0.105c-0.034-0.036-0.071-0.071-0.106-0.106c-0.034-0.035-0.069-0.069-0.104-0.104    c-0.034-0.037-0.071-0.071-0.106-0.106c-0.035-0.036-0.07-0.072-0.106-0.106c-0.035-0.035-0.069-0.07-0.104-0.105    c-0.035-0.036-0.071-0.071-0.106-0.105c-0.035-0.037-0.071-0.072-0.106-0.106c-0.035-0.036-0.07-0.072-0.106-0.107    c-0.035-0.036-0.071-0.071-0.106-0.106c-0.031-0.031-0.063-0.063-0.097-0.096c-0.04-0.041-0.08-0.082-0.121-0.121    c-0.032-0.033-0.065-0.066-0.101-0.101c-0.034-0.036-0.07-0.071-0.105-0.106s-0.07-0.07-0.105-0.105    c-0.035-0.036-0.071-0.071-0.106-0.105c-0.034-0.035-0.069-0.069-0.104-0.104c-0.033-0.035-0.067-0.07-0.104-0.104    c-0.038-0.039-0.078-0.078-0.117-0.117c-0.033-0.032-0.066-0.065-0.1-0.1c-0.035-0.035-0.071-0.07-0.105-0.105    c-0.035-0.036-0.072-0.071-0.107-0.106c-0.002-0.003-0.004-0.006-0.008-0.008C66.952,62.521,67.154,61.661,68,61    c1.537-1.2,3-3.035,3-5c0-1.798-0.625-3.782-1.802-5.061c-0.034-0.039-0.073-0.071-0.108-0.109    c-0.033-0.038-0.072-0.069-0.105-0.105c-0.032-0.037-0.07-0.067-0.104-0.104c-0.032-0.038-0.071-0.069-0.106-0.106    c-0.032-0.039-0.071-0.068-0.105-0.106c-0.033-0.038-0.072-0.068-0.105-0.106c-0.033-0.037-0.072-0.068-0.106-0.105    c-0.033-0.038-0.072-0.068-0.106-0.106c-0.031-0.032-0.062-0.06-0.09-0.089H71l2.387-1c0,0-0.135,0-0.359,0l0.254-0.105    c0,0-0.135,0-0.36,0l0.254-0.106c0,0-0.135,0-0.36,0l0.254-0.106c0,0-0.133,0-0.357,0l0.252-0.104c0,0-0.135,0-0.359,0    l0.254-0.106c0,0-0.135,0-0.359,0l0.254-0.105c0,0-0.135,0-0.359,0l0.254-0.106c0,0-0.136,0-0.36,0l0.254-0.106    c0,0-0.136,0-0.36,0l0.254-0.105c0,0-0.135,0-0.359,0l0.254-0.105c0,0-0.135,0-0.359,0l0.254-0.106c0,0-0.134,0-0.357,0    l0.252-0.104c0,0-0.135,0-0.36,0l0.254-0.106c0,0-0.135,0-0.36,0l0.254-0.106c0,0-0.135,0-0.359,0l0.254-0.105    c0,0-0.135,0-0.359,0l0.254-0.105c0,0-0.135,0-0.36,0l0.254-0.106c0,0-0.134,0-0.358,0l0.254-0.106c0,0-0.135,0-0.359,0    l0.252-0.104c0,0-0.135,0-0.359,0l0.254-0.106c0,0-0.135,0-0.359,0l0.254-0.105c0,0-0.135,0-0.36,0l0.255-0.106    c0,0-0.136,0-0.361,0l0.255-0.106c0,0-0.136,0-0.36,0l0.254-0.105c0,0-0.135,0-0.359,0l0.254-0.105c0,0-0.135,0-0.357,0    l0.252-0.105c0,0-0.135,0-0.359,0l0.254-0.105c0,0-0.135,0-0.36,0l0.254-0.106c0,0-0.135,0-0.36,0l0.254-0.106    c0,0-0.135,0-0.359,0l0.254-0.105c0,0-0.135,0-0.359,0l0.254-0.106c0,0-0.135,0-0.358,0l0.252-0.104c0,0-0.136,0-0.361,0    l0.257-0.107c0,0-0.135,0-0.359,0l0.252-0.105c0,0-0.135,0-0.359,0l0.254-0.105c0,0-0.135,0-0.359,0l0.254-0.105    c0,0-0.135,0-0.36,0l0.254-0.106c0,0-0.135,0-0.36,0l0.254-0.106c0,0-0.135,0-0.358,0l0.254-0.105c0,0-0.136,0-0.36,0l0.254-0.105    c0,0-0.135,0-0.36,0l0.254-0.106c0,0-0.133,0-0.356,0l0.252-0.104c0,0-0.136,0-0.36,0l0.254-0.106c0,0-0.136,0-0.36,0l0.254-0.106    c0,0-0.135,0-0.359,0l0.254-0.105c0,0-0.135,0-0.36,0l0.255-0.106c0,0-0.135,0-0.359,0l0.252-0.104c0,0-0.135,0-0.36,0    l0.256-0.107c0,0-0.134,0-0.358,0l0.252-0.105c0,0-0.135,0-0.359,0l0.254-0.105c0,0-0.135,0-0.359,0l0.254-0.105    c0,0-0.135,0-0.36,0l0.254-0.106c0,0-0.135,0-0.36,0l0.254-0.106c0,0-0.134,0-0.356,0l0.252-0.104c0,0-0.138,0-0.363,0    l0.257-0.106c0,0-0.134,0-0.357,0l0.252-0.105c0,0-0.135,0-0.36,0l0.255-0.106c0,0-0.136,0-0.361,0l0.255-0.106    c0,0-0.136,0-0.36,0l0.254-0.105c0,0-0.135,0-0.359,0l0.254-0.105c0,0-0.135,0-0.36,0l0.254-0.106c0,0-0.134,0-0.358,0    l0.252-0.104c0,0-0.135,0-0.358,0l0.254-0.106c0,0-0.135,0-0.36,0l0.254-0.106c0,0-0.135,0-0.359,0l0.254-0.105    c0,0-0.135,0-0.359,0l0.254-0.105c0,0-0.136,0-0.36,0l0.254-0.106c0,0-0.136,0-0.36,0l0.254-0.106c0,0-0.134,0-0.357,0    l0.252-0.104c0,0-0.137,0-0.361,0l0.256-0.107c0,0-0.134,0-0.359,0l0.252-0.104c0,0-0.135,0-0.358,0l0.254-0.106    c0,0-0.135,0-0.36,0l0.254-0.106c0,0-0.135,0-0.359,0l0.254-0.105c0,0-0.135,0-0.359,0l0.254-0.105c0,0-0.135,0-0.36,0    l0.254-0.106c0,0-0.133,0-0.356,0l0.252-0.104c0,0-0.137,0-0.362,0l0.256-0.107c0,0-0.134,0-0.358,0l0.252-0.105    c0,0-0.135,0-0.359,0l0.254-0.105c0,0-0.135,0-0.36,0l0.254-0.105c0,0-0.135,0-0.36,0l0.254-0.106c0,0-0.135,0-0.359,0    l0.254-0.106c0,0-0.133,0-0.357,0l0.252-0.105c0,0-0.135,0-0.362,0l0.257-0.106c0,0-0.134,0-0.357,0l0.252-0.104    c0,0-0.135,0-0.36,0l0.254-0.106c0,0-0.135,0-0.36,0l0.254-0.106c0,0-0.135,0-0.359,0l0.254-0.105c0,0-0.135,0-0.359,0    l0.254-0.105c0,0-0.135,0-0.357,0l0.252-0.105c0,0-0.135,0-0.361,0l0.254-0.105c0,0-0.135,0-0.359,0l0.255-0.106    c0,0-0.136,0-0.361,0l0.255-0.106c0,0-0.135,0-0.359,0l0.254-0.105c0,0-0.135,0-0.36,0l0.254-0.106c0,0-0.135,0-0.36,0    l0.254-0.106c0,0-0.133,0-0.357,0l0.252-0.104c0,0-0.135,0-0.359,0l0.254-0.106c0,0-0.135,0-0.359,0l0.254-0.105    c0,0-0.135,0-0.359,0l0.254-0.105c0,0-0.136,0-0.36,0l0.254-0.106c0,0-0.136,0-0.36,0l0.254-0.106c0,0-0.135,0-0.359,0    l0.254-0.105c0,0-0.135,0-0.359,0l0.254-0.105c0,0-0.135,0-0.359,0l0.254-0.106c0,0-0.135,0-0.358,0l0.252-0.105    c0,0-0.136,0-0.362,0l0.256-0.106c0,0-0.135,0-0.357,0l0.252-0.105c0,0-0.135,0-0.359,0l0.254-0.105c0,0-0.135,0-0.36,0    l0.254-0.106c0,0-0.135,0-0.358,0l0.254-0.106c0,0-0.135,0-0.361,0l0.254-0.105c0,0-0.135,0-0.357,0l0.252-0.105    c0,0-0.136,0-0.361,0l0.256-0.106c0,0-0.135,0-0.357,0l0.252-0.104c0,0-0.136,0-0.361,0l0.255-0.106c0,0-0.136,0-0.36,0    l0.254-0.106c0,0-0.135,0-0.359,0l0.254-0.105c0,0-0.135,0-0.36,0l0.254-0.106c0,0-0.133,0-0.356,0l0.252-0.104    c0,0-0.135,0-0.36,0l0.254-0.106c0,0-0.135,0-0.36,0l0.254-0.106c0,0-0.135,0-0.359,0l0.254-0.105c0,0-0.135,0-0.359,0    l0.254-0.105c0,0-0.135,0-0.358,0l0.252-0.105c0,0-0.136,0-0.363,0l0.257-0.107c0,0-0.133,0-0.356,0l0.252-0.104    c0,0-0.136,0-0.361,0l0.255-0.106c0,0-0.136,0-0.359,0l0.254-0.105c0,0-0.135,0-0.36,0l0.254-0.105c0,0-0.135,0-0.36,0    l0.254-0.106c0,0-0.135,0-0.358,0l0.254-0.106c0,0-0.135,0-0.36,0l0.254-0.105c0,0-0.135,0-0.359,0l0.254-0.106    c0,0-0.134,0-0.359,0l0.252-0.104c0,0-0.135,0-0.358,0l0.254-0.106c0,0-0.135,0-0.36,0l0.254-0.106c0,0-0.135,0-0.359,0    l0.254-0.105c0,0-0.135,0-0.359,0l0.254-0.105c0,0-0.136,0-0.361,0l0.255-0.106c0,0-0.136,0-0.359,0l0.255-0.106    c0,0-0.136,0-0.361,0l0.255-0.105c0,0-0.134,0-0.358,0l0.252-0.105c0,0-0.135,0-0.359,0l0.254-0.105c0,0-0.135,0-0.36,0    l0.254-0.106c0,0-0.135,0-0.36,0l0.254-0.106c0,0-0.135,0-0.359,0l0.254-0.105c0,0-0.135,0-0.359,0l0.254-0.105    c0,0-0.136,0-0.36,0l0.254-0.106c0,0-0.136,0-0.358,0l0.254-0.106c0,0-0.135,0-0.358,0l0.252-0.104c0,0-0.136,0-0.36,0    l0.254-0.106c0,0-0.135,0-0.359,0l0.254-0.105c0,0-0.135,0-0.36,0l0.254-0.105c0,0-0.135,0-0.358,0l0.254-0.106    c0,0-0.135,0-0.358,0l0.252-0.105c0,0-0.136,0-0.362,0l0.256-0.107c0,0-0.135,0-0.359,0l0.253-0.106c0,0-0.135,0-0.358,0    l0.254-0.106c0,0-0.135,0-0.359,0l0.253-0.106c0,0-0.136,0-0.36,0l0.254-0.107c0,0-0.135,0-0.359,0l0.254-0.106    c0,0-0.135,0-0.359,0l0.254-0.106c0,0-0.135,0-0.357,0l0.252-0.105c0,0-0.137,0-0.362,0l0.255-0.107c0,0-0.135,0-0.359,0    l0.255-0.106c0,0-0.136,0-0.359,0l0.253-0.106c0,0-0.135,0-0.359,0l0.254-0.106c0,0-0.135,0-0.359,0L55.39,31c0,0-0.136,0-0.36,0    l0.254-0.107c0,0-0.133,0-0.356,0l0.252-0.105c0,0-0.135,0-0.36,0l0.254-0.106c0,0-0.135,0-0.359,0l0.254-0.106    c0,0-0.137,0-0.361,0l0.254-0.107c0,0-0.134,0-0.357,0l0.253-0.106c0,0-0.136,0-0.36,0l0.254-0.106c0,0-0.135,0-0.358,0    l0.253-0.106c0,0-0.137,0-0.361,0l0.256-0.107c0,0-0.135,0-0.359,0l0.254-0.106c0,0-0.135,0-0.359,0l0.253-0.106    c0,0-0.135,0-0.36,0l0.254-0.106c0,0-0.135,0-0.359,0l0.254-0.106c0,0-0.135,0-0.359,0l0.254-0.106c0,0-0.135,0-0.358,0    l0.252-0.105c0,0-0.136,0-0.362,0l0.256-0.107c0,0-0.135,0-0.358,0l0.253-0.106c0,0-0.135,0-0.359,0l0.254-0.106    c0,0-0.135,0-0.358,0l0.253-0.106c0,0-0.135,0-0.36,0l0.255-0.106c0,0-0.136,0-0.361,0l0.255-0.106c0,0-0.136,0-0.36,0    l0.254-0.106c0,0-0.134,0-0.357,0l0.252-0.105c0,0-0.137,0-0.363,0l0.257-0.107c0,0-0.135,0-0.358,0l0.254-0.106    c0,0-0.135,0-0.358,0l0.252-0.105c0,0-0.135,0-0.36,0l0.254-0.106c0,0-0.135,0-0.359,0l0.254-0.106c0,0-0.135,0-0.359,0    l0.254-0.106c0,0-0.136,0-0.359,0l0.253-0.106c0,0-0.136,0-0.36,0l0.254-0.106c0,0-0.134,0-0.357,0l0.253-0.106    c0,0-0.138,0-0.363,0l0.257-0.107c0,0-0.135,0-0.357,0l0.252-0.105c0,0-0.135,0-0.36,0l0.254-0.106c0,0-0.135,0-0.36,0    l0.254-0.106c0,0-0.135,0-0.359,0l0.254-0.106c0,0-0.135,0-0.359,0l0.254-0.106c0,0-0.135,0-0.358,0l0.253-0.106    c0,0-0.136,0-0.361,0l0.256-0.107c0,0-0.135,0-0.359,0l0.253-0.106c0,0-0.136,0-0.36,0l0.254-0.106c0,0-0.135,0-0.358,0    l0.253-0.106c0,0-0.135,0-0.36,0l0.255-0.107c0,0-0.135,0-0.361,0l0.255-0.106c0,0-0.136,0-0.36,0l0.254-0.106    c0,0-0.134,0-0.357,0l0.252-0.105c0,0-0.135,0-0.36,0l0.255-0.107c0,0-0.135,0-0.359,0l0.254-0.106c0,0-0.135,0-0.36,0    l0.254-0.106c0,0-0.134,0-0.358,0l0.254-0.106c0,0-0.137,0-0.361,0l0.254-0.106c0,0-0.136,0-0.361,0l0.256-0.107    c0,0-0.135,0-0.358,0l0.252-0.105c0,0-0.136,0-0.358,0l0.254-0.106c0,0-0.136,0-0.36,0l0.254-0.106c0,0-0.136,0-0.36,0    l0.254-0.106c0,0-0.135,0-0.359,0l0.254-0.106c0,0-0.135,0-0.36,0l0.254-0.106c0,0-0.134,0-0.358,0l0.254-0.106    c0,0-0.135,0-0.361,0l0.254-0.106c0,0-0.135,0-0.359,0l0.254-0.106c0,0-0.135,0-0.358,0l0.253-0.106c0,0-0.135,0-0.359,0    l0.254-0.106c0,0-0.135,0-0.36,0l0.254-0.106c0,0-0.135,0-0.36,0l0.254-0.106c0,0-0.135,0-0.359,0l0.254-0.106    c0,0-0.135,0-0.357,0l0.252-0.106c0,0-0.135,0-0.358,0l0.253-0.106c0,0-0.137,0-0.361,0l0.256-0.107c0,0-0.135,0-0.359,0    l0.252-0.106c0,0-0.135,0-0.359,0l0.254-0.106c0,0-0.135,0-0.359,0l0.254-0.106c0,0-0.135,0-0.36,0l0.254-0.106    c0,0-0.135,0-0.36,0l0.254-0.106c0,0-0.133,0-0.357,0l0.253-0.106c0,0-0.135,0-0.358,0l0.252-0.106c0,0-0.135,0-0.359,0    l0.254-0.106c0,0-0.135,0-0.359,0l0.254-0.106c0,0-0.135,0-0.359,0l0.253-0.106c0,0-0.136,0-0.361,0l0.255-0.107    c0,0-0.135,0-0.359,0l0.254-0.106c0,0-0.135,0-0.361,0l0.255-0.107c0,0-0.134,0-0.356,0l0.252-0.105c0,0-0.137,0-0.361,0    l0.255-0.107c0,0-0.135,0-0.358,0l0.252-0.106c0,0-0.135,0-0.359,0l0.254-0.106c0,0-0.135,0-0.359,0l0.254-0.106    c0,0-0.137,0-0.361,0l0.255-0.107c0,0-0.135,0-0.358,0l0.252-0.106c0,0-0.135,0-0.359,0l0.254-0.106c0,0-0.135,0-0.357,0    l0.252-0.106c0,0-0.135,0-0.359,0l0.254-0.106c0,0-0.135,0-0.36,0l0.255-0.106c0,0-0.136,0-0.359,0l0.253-0.106    c0,0-0.136,0-0.359,0l0.254-0.106c0,0-0.136,0-0.36,0l0.254-0.106c0,0-0.135,0-0.359,0l0.254-0.106c0,0-0.136,0-0.361,0    l0.254-0.106c0,0-0.133,0-0.357,0l0.253-0.106c0,0-0.135,0-0.36,0l0.254-0.106c0,0-0.135,0-0.359,0l0.254-0.106    c0,0-0.135,0-0.359,0l0.254-0.106c0,0-0.136,0-0.359,0l0.253-0.106c0,0-0.136,0-0.36,0l0.256-0.107c0,0-0.137,0-0.361,0    l0.254-0.106c0,0-0.135,0-0.359,0l0.254-0.106c0,0-0.134,0-0.359,0l0.254-0.106c0,0-0.135,0-0.36,0l0.254-0.106    c0,0-0.135,0-0.36,0l0.254-0.106c0,0-0.133,0-0.357,0l0.253-0.106c0,0-0.135,0-0.36,0l0.254-0.106c0,0-0.135,0-0.359,0    l0.254-0.106c0,0-0.135,0-0.359,0l0.254-0.106c0,0-0.136,0-0.36,0l0.254-0.106c0,0-0.136,0-0.358,0l0.252-0.106    c0,0-0.135,0-0.358,0l0.253-0.106c0,0-0.135,0-0.361,0l0.256-0.107c0,0-0.135,0-0.359,0l0.253-0.105c0,0-0.136,0-0.36,0    l0.255-0.107c0,0-0.135,0-0.358,0l0.252-0.106c0,0-0.135,0-0.36,0l0.255-0.107c0,0-0.135,0-0.359,0l0.254-0.106    c0,0-0.135,0-0.36,0l0.254-0.106c0,0-0.135,0-0.358,0l0.252-0.106c0,0-0.136,0-0.36,0l0.255-0.107c0,0-0.133,0-0.357,0    l0.252-0.105c0,0-0.136,0-0.36,0l0.255-0.107c0,0-0.135,0-0.359,0l0.254-0.106c0,0-0.136,0-0.361,0l0.255-0.106    c0,0-0.136,0-0.36,0L41.387,17c0,0-7.063,0-9.386,0c-4.165,0-8,3.345-8,7c0,1.88,0.724,3.529,1.981,4.704    c0.036,0.034,0.069,0.071,0.105,0.104c0.036,0.035,0.069,0.072,0.106,0.106c0.036,0.035,0.069,0.072,0.106,0.106    c0.037,0.036,0.071,0.073,0.109,0.108c0.035,0.035,0.068,0.071,0.105,0.105c0.036,0.035,0.07,0.072,0.107,0.107    c0.036,0.035,0.069,0.071,0.105,0.105c0.035,0.034,0.067,0.07,0.104,0.104c0.038,0.037,0.073,0.075,0.111,0.111    c0.035,0.034,0.067,0.07,0.103,0.104c0.037,0.036,0.071,0.073,0.108,0.108c0.035,0.035,0.068,0.071,0.104,0.104    c0.037,0.036,0.072,0.074,0.11,0.109c0.035,0.034,0.068,0.07,0.103,0.104c0.036,0.035,0.07,0.072,0.107,0.107    c0.036,0.035,0.07,0.072,0.107,0.107c0.035,0.034,0.068,0.07,0.104,0.104c0.037,0.036,0.071,0.074,0.108,0.109    c0.036,0.035,0.07,0.072,0.106,0.106c0.036,0.035,0.07,0.072,0.107,0.107c0.036,0.035,0.07,0.072,0.106,0.106    c0.035,0.035,0.068,0.071,0.105,0.105c0.036,0.035,0.069,0.072,0.106,0.106c0.036,0.035,0.07,0.072,0.107,0.107    c0.037,0.036,0.071,0.073,0.109,0.108c0.035,0.034,0.068,0.07,0.104,0.104c0.036,0.035,0.069,0.072,0.106,0.106    c0.036,0.035,0.069,0.072,0.106,0.106c0.036,0.036,0.07,0.073,0.107,0.107c0.036,0.035,0.069,0.072,0.105,0.105    c0.037,0.036,0.071,0.073,0.108,0.108c0.035,0.034,0.067,0.07,0.103,0.104c0.036,0.035,0.07,0.073,0.108,0.107    c0.036,0.036,0.07,0.073,0.108,0.107c0.035,0.035,0.068,0.071,0.105,0.105c0.035,0.034,0.068,0.07,0.104,0.104    c0.037,0.037,0.072,0.074,0.11,0.109c0.034,0.034,0.067,0.07,0.102,0.104c0.037,0.037,0.072,0.074,0.11,0.109    c0.036,0.035,0.069,0.071,0.105,0.105c0.036,0.035,0.069,0.07,0.105,0.105c0.036,0.034,0.069,0.07,0.106,0.105    c0.036,0.035,0.07,0.072,0.107,0.105c0.035,0.034,0.068,0.071,0.104,0.104c0.036,0.035,0.07,0.071,0.107,0.106    c0.036,0.035,0.071,0.073,0.108,0.107c0.036,0.035,0.07,0.072,0.106,0.105c0.036,0.035,0.069,0.072,0.105,0.105    c0.036,0.035,0.069,0.071,0.106,0.105c0.036,0.035,0.069,0.072,0.106,0.106c0.036,0.035,0.069,0.071,0.106,0.104    c0.036,0.037,0.07,0.074,0.107,0.107c0.036,0.035,0.069,0.071,0.106,0.106c0.036,0.034,0.068,0.069,0.104,0.104    c0.038,0.035,0.073,0.073,0.111,0.109c0.034,0.034,0.066,0.068,0.102,0.102c0.037,0.037,0.072,0.075,0.11,0.11    c0.034,0.033,0.066,0.069,0.102,0.103c0.037,0.037,0.072,0.074,0.111,0.11c0.007,0.007,0.014,0.015,0.021,0.022    c-0.445,0-0.925,0-1.277,0c-5.159,0-9,2.593-9,6c0,1.078,0.509,2.082,1.365,2.951c0.035,0.037,0.074,0.074,0.111,0.11    c0.033,0.034,0.069,0.067,0.103,0.103c0.035,0.037,0.073,0.072,0.109,0.109c0.034,0.035,0.07,0.069,0.105,0.104    c0.035,0.036,0.072,0.071,0.108,0.106c0.033,0.035,0.069,0.068,0.103,0.104c0.034,0.037,0.072,0.072,0.107,0.107    c0.034,0.037,0.071,0.07,0.106,0.106c0.034,0.036,0.071,0.069,0.105,0.104c0.034,0.037,0.071,0.071,0.106,0.106    c0.034,0.037,0.072,0.072,0.108,0.108c0.035,0.037,0.073,0.072,0.109,0.107c0.033,0.034,0.068,0.067,0.102,0.102    c0.035,0.037,0.073,0.072,0.11,0.109c0.033,0.035,0.069,0.068,0.103,0.104c0.034,0.036,0.071,0.069,0.106,0.106    c0.034,0.035,0.071,0.069,0.105,0.104c0.036,0.038,0.075,0.075,0.112,0.112c0.032,0.033,0.067,0.065,0.1,0.1    c0.035,0.037,0.073,0.072,0.11,0.109c0.034,0.035,0.071,0.069,0.106,0.104c0.034,0.036,0.07,0.07,0.105,0.106    c0.034,0.035,0.072,0.07,0.107,0.106c0.034,0.035,0.071,0.07,0.106,0.104c0.033,0.035,0.07,0.07,0.104,0.104    c0.035,0.037,0.073,0.072,0.109,0.109c0.033,0.034,0.07,0.069,0.105,0.104c0.034,0.035,0.072,0.07,0.107,0.106    c0.034,0.036,0.071,0.069,0.106,0.104c0.034,0.036,0.071,0.071,0.106,0.106c0.034,0.036,0.071,0.069,0.105,0.104    c0.035,0.037,0.074,0.073,0.11,0.11c0.032,0.034,0.068,0.065,0.101,0.101c0.035,0.037,0.073,0.073,0.109,0.109    c0.035,0.037,0.073,0.072,0.108,0.107c0.032,0.035,0.067,0.066,0.1,0.101c0.036,0.038,0.075,0.074,0.111,0.112    c0.033,0.035,0.07,0.068,0.104,0.104c0.036,0.037,0.074,0.073,0.111,0.11c0.032,0.034,0.068,0.067,0.101,0.101    c0.035,0.039,0.073,0.073,0.11,0.11c0.033,0.035,0.07,0.069,0.104,0.104c0.034,0.035,0.072,0.07,0.108,0.106    c0.033,0.035,0.069,0.069,0.104,0.104c0.034,0.035,0.071,0.07,0.106,0.105c0.034,0.036,0.072,0.071,0.107,0.107    c0.034,0.035,0.071,0.07,0.106,0.105c0.035,0.036,0.072,0.071,0.108,0.107c0.033,0.035,0.069,0.068,0.103,0.103    c0.035,0.038,0.073,0.073,0.109,0.11c0.034,0.035,0.07,0.068,0.105,0.104c0.033,0.035,0.069,0.069,0.104,0.104    c0.034,0.036,0.072,0.071,0.107,0.106c0.035,0.037,0.073,0.072,0.108,0.108c0.034,0.036,0.072,0.071,0.108,0.106    c0.033,0.035,0.068,0.068,0.102,0.103c0.035,0.037,0.073,0.073,0.109,0.108c0.033,0.035,0.069,0.07,0.104,0.104    c0.035,0.037,0.074,0.073,0.11,0.11c0.033,0.035,0.069,0.068,0.103,0.104c0.034,0.035,0.071,0.069,0.106,0.104    c0.035,0.036,0.073,0.073,0.109,0.108c0.034,0.037,0.071,0.07,0.106,0.105c0.033,0.036,0.07,0.068,0.104,0.104    c0.034,0.037,0.071,0.071,0.106,0.106c0.034,0.037,0.072,0.071,0.108,0.108c0.033,0.035,0.069,0.068,0.104,0.104    c0.034,0.036,0.071,0.071,0.107,0.105c0.035,0.037,0.073,0.072,0.108,0.108c0.033,0.035,0.069,0.068,0.103,0.104    c0.035,0.037,0.073,0.072,0.108,0.107c0.035,0.037,0.073,0.072,0.108,0.108c0.033,0.034,0.068,0.067,0.102,0.103    c0.035,0.035,0.073,0.071,0.109,0.107c0.035,0.037,0.072,0.072,0.108,0.107c0.033,0.035,0.068,0.067,0.103,0.104    c0.035,0.037,0.074,0.074,0.111,0.111c0.033,0.033,0.069,0.066,0.103,0.102c0.034,0.036,0.071,0.071,0.106,0.105    c0.034,0.037,0.071,0.072,0.106,0.107c0.035,0.037,0.073,0.072,0.109,0.109c0.032,0.033,0.068,0.066,0.101,0.102    c0.034,0.035,0.072,0.07,0.107,0.106c0.035,0.036,0.074,0.073,0.11,0.11c0.033,0.035,0.07,0.068,0.104,0.104    c0.035,0.037,0.073,0.072,0.109,0.109c0.033,0.035,0.07,0.068,0.104,0.104c0.033,0.036,0.07,0.07,0.105,0.105    c0.033,0.035,0.068,0.068,0.104,0.104c0.037,0.039,0.078,0.076,0.115,0.115c0.031,0.033,0.065,0.063,0.098,0.096    c0.035,0.039,0.074,0.075,0.111,0.113c0.033,0.035,0.07,0.068,0.104,0.104c0.032,0.035,0.069,0.069,0.104,0.104    c0.035,0.037,0.074,0.073,0.11,0.11c0.033,0.035,0.068,0.067,0.104,0.104c0.035,0.037,0.073,0.072,0.109,0.109    c0.032,0.033,0.068,0.066,0.102,0.102c0.035,0.037,0.073,0.072,0.109,0.109c0.034,0.035,0.071,0.07,0.107,0.106    c0.031,0.035,0.068,0.068,0.104,0.104c0.035,0.037,0.074,0.074,0.111,0.111c0.031,0.034,0.068,0.067,0.104,0.103    c0.033,0.035,0.069,0.069,0.104,0.104c0.034,0.035,0.071,0.071,0.108,0.107c0.033,0.037,0.071,0.072,0.107,0.107    c0.032,0.035,0.066,0.067,0.102,0.102c0.037,0.039,0.075,0.075,0.112,0.113c0.032,0.033,0.065,0.066,0.101,0.099    c0.035,0.039,0.074,0.076,0.112,0.114c0.033,0.035,0.069,0.068,0.104,0.104c0.031,0.034,0.068,0.067,0.103,0.104    c0.036,0.037,0.075,0.074,0.113,0.113c0.032,0.033,0.067,0.065,0.101,0.1c0.035,0.037,0.073,0.072,0.109,0.109    c0.034,0.037,0.07,0.07,0.105,0.105c0.033,0.036,0.07,0.068,0.104,0.104c0.033,0.035,0.069,0.069,0.104,0.104    c0.035,0.039,0.074,0.076,0.112,0.114c0.032,0.033,0.068,0.066,0.103,0.102c0.035,0.037,0.072,0.072,0.109,0.108    c0.032,0.034,0.068,0.069,0.104,0.104c0.033,0.035,0.07,0.069,0.105,0.104c0.034,0.038,0.072,0.073,0.109,0.11    c0.033,0.035,0.068,0.068,0.104,0.104c0.034,0.037,0.071,0.072,0.107,0.107c0.033,0.035,0.068,0.068,0.104,0.104    c0.035,0.037,0.073,0.073,0.109,0.109c0.034,0.037,0.072,0.072,0.107,0.107c0.033,0.035,0.07,0.069,0.104,0.104    c0.033,0.036,0.07,0.069,0.104,0.104c0.033,0.035,0.068,0.069,0.104,0.104c0.036,0.037,0.075,0.074,0.113,0.113    c0.033,0.035,0.068,0.067,0.104,0.103c0.033,0.036,0.07,0.069,0.105,0.104c0.033,0.037,0.072,0.072,0.107,0.107    c0.031,0.035,0.067,0.068,0.102,0.104c0.036,0.037,0.074,0.073,0.111,0.111c0.033,0.035,0.069,0.069,0.104,0.104    c0.034,0.037,0.071,0.072,0.106,0.106c0.031,0.035,0.068,0.068,0.103,0.103c0.036,0.039,0.075,0.076,0.113,0.115    c0.032,0.033,0.067,0.066,0.103,0.102c0.033,0.036,0.07,0.07,0.104,0.105c0.034,0.037,0.073,0.072,0.11,0.109    c0.031,0.034,0.066,0.066,0.101,0.102c0.036,0.037,0.075,0.074,0.112,0.112c0.031,0.033,0.066,0.066,0.101,0.101    c0.035,0.037,0.073,0.072,0.108,0.108c0.035,0.037,0.074,0.073,0.11,0.11c0.031,0.033,0.066,0.064,0.099,0.098    c0.037,0.039,0.076,0.077,0.115,0.115c0.031,0.034,0.067,0.066,0.102,0.102c0.033,0.036,0.07,0.07,0.107,0.106    c0.033,0.036,0.07,0.071,0.105,0.106c0.033,0.035,0.07,0.07,0.105,0.105c0.034,0.036,0.071,0.07,0.106,0.105    c0.034,0.037,0.071,0.072,0.106,0.107c0.033,0.035,0.069,0.068,0.104,0.104c0.034,0.037,0.071,0.072,0.106,0.106    c0.033,0.037,0.07,0.071,0.106,0.106c0.034,0.037,0.071,0.072,0.106,0.107c0.033,0.035,0.07,0.07,0.105,0.105    c0.032,0.035,0.068,0.068,0.104,0.104c0.037,0.039,0.078,0.078,0.117,0.117c0.029,0.032,0.063,0.063,0.096,0.096    c0.033,0.035,0.072,0.071,0.107,0.107c0.034,0.037,0.071,0.07,0.107,0.107c0.034,0.035,0.07,0.07,0.105,0.105    c0.035,0.036,0.071,0.071,0.106,0.105c0.033,0.035,0.069,0.07,0.104,0.104c0.035,0.038,0.074,0.074,0.111,0.112    c0.032,0.033,0.068,0.066,0.104,0.102c0.033,0.036,0.07,0.07,0.104,0.106s0.072,0.071,0.107,0.106    c0.034,0.035,0.071,0.07,0.106,0.105c0.033,0.036,0.07,0.07,0.105,0.105c0.033,0.037,0.07,0.07,0.105,0.105    c0.033,0.037,0.07,0.072,0.106,0.107c0.034,0.035,0.071,0.07,0.106,0.105c0.033,0.035,0.068,0.069,0.104,0.104    c0.035,0.037,0.073,0.074,0.109,0.11c0.033,0.035,0.07,0.069,0.104,0.104s0.071,0.07,0.106,0.105    c0.031,0.035,0.068,0.068,0.103,0.104c0.036,0.039,0.077,0.076,0.115,0.115c0.03,0.033,0.065,0.065,0.099,0.1    c0.035,0.036,0.073,0.072,0.109,0.107c0.033,0.037,0.07,0.069,0.104,0.104c0.034,0.037,0.071,0.071,0.107,0.106    c0.034,0.037,0.07,0.071,0.105,0.106c0.033,0.035,0.068,0.068,0.104,0.103c0.036,0.039,0.075,0.076,0.113,0.115    c0.031,0.033,0.066,0.065,0.101,0.1c0.035,0.037,0.074,0.074,0.11,0.111c0.033,0.035,0.07,0.068,0.105,0.104    c0.032,0.035,0.069,0.068,0.104,0.104c0.033,0.037,0.07,0.071,0.107,0.107c0.032,0.036,0.068,0.068,0.104,0.104    c0.033,0.037,0.07,0.071,0.105,0.106c0.037,0.038,0.074,0.074,0.111,0.11c0.032,0.035,0.068,0.068,0.104,0.104    c0.035,0.037,0.072,0.072,0.108,0.107c0.033,0.035,0.069,0.07,0.104,0.104c0.033,0.037,0.07,0.071,0.106,0.107    c0.032,0.034,0.068,0.069,0.103,0.104c0.035,0.037,0.074,0.073,0.109,0.109c0.035,0.037,0.073,0.073,0.109,0.108    c0.031,0.035,0.068,0.067,0.102,0.103c0.035,0.037,0.074,0.073,0.11,0.11c0.033,0.035,0.069,0.067,0.104,0.103    c0.033,0.037,0.07,0.071,0.106,0.106c0.034,0.037,0.071,0.072,0.106,0.106c0.031,0.035,0.067,0.068,0.103,0.104    c0.036,0.037,0.074,0.074,0.111,0.111c0.032,0.034,0.067,0.067,0.103,0.103c0.035,0.038,0.074,0.073,0.111,0.11    c0.033,0.035,0.068,0.068,0.104,0.104c0.034,0.036,0.071,0.07,0.106,0.105c0.034,0.037,0.071,0.071,0.106,0.106    c0.033,0.036,0.07,0.071,0.105,0.106c0.034,0.037,0.072,0.072,0.107,0.107c0.031,0.034,0.067,0.067,0.102,0.102    c0.035,0.037,0.074,0.074,0.111,0.111c0.033,0.035,0.068,0.069,0.104,0.104c0.034,0.036,0.071,0.071,0.106,0.106    c0.034,0.035,0.071,0.07,0.106,0.105c0.033,0.035,0.07,0.07,0.105,0.105c0.033,0.036,0.07,0.071,0.105,0.106    c0.032,0.035,0.068,0.067,0.104,0.104s0.074,0.073,0.111,0.111c0.033,0.035,0.07,0.069,0.105,0.104    c0.033,0.035,0.068,0.069,0.104,0.104c0.035,0.037,0.071,0.072,0.107,0.106c0.034,0.037,0.071,0.072,0.105,0.106    c0.035,0.037,0.072,0.071,0.107,0.107c0.034,0.036,0.071,0.069,0.106,0.106c0.032,0.033,0.067,0.066,0.101,0.102    c0.036,0.037,0.075,0.074,0.112,0.111c0.032,0.035,0.069,0.069,0.104,0.104c0.033,0.036,0.07,0.071,0.105,0.106    c0.033,0.035,0.07,0.07,0.105,0.105c0.035,0.036,0.071,0.071,0.106,0.105c0.034,0.037,0.071,0.072,0.106,0.106    c0.031,0.035,0.067,0.069,0.103,0.104c0.037,0.039,0.077,0.076,0.115,0.115c0.03,0.032,0.065,0.063,0.098,0.096    c0.035,0.037,0.073,0.074,0.109,0.109c0.034,0.036,0.071,0.071,0.106,0.106c0.033,0.036,0.07,0.071,0.105,0.106    c0.033,0.035,0.07,0.07,0.105,0.105c0.033,0.036,0.07,0.07,0.104,0.105c0.034,0.037,0.073,0.071,0.108,0.107    c0.033,0.036,0.069,0.07,0.104,0.105c0.034,0.035,0.071,0.07,0.106,0.104c0.033,0.036,0.07,0.071,0.105,0.106    c0.034,0.035,0.071,0.07,0.105,0.105c0.035,0.036,0.072,0.071,0.106,0.106c0.032,0.034,0.068,0.067,0.103,0.104    c0.037,0.038,0.076,0.075,0.115,0.113c0.031,0.034,0.066,0.066,0.1,0.1c0.033,0.037,0.072,0.071,0.107,0.107    c0.034,0.036,0.071,0.07,0.106,0.105c0.034,0.037,0.071,0.071,0.106,0.106c0.033,0.036,0.07,0.071,0.105,0.106    c0.032,0.035,0.068,0.067,0.102,0.103c0.037,0.04,0.078,0.078,0.117,0.117c0.031,0.032,0.065,0.063,0.098,0.096    c0.035,0.037,0.072,0.073,0.108,0.109c0.034,0.036,0.071,0.071,0.106,0.106c0.033,0.035,0.07,0.07,0.105,0.105    c0.034,0.036,0.071,0.07,0.106,0.105c0.032,0.035,0.069,0.069,0.104,0.104c0.035,0.039,0.074,0.075,0.111,0.112    c0.032,0.035,0.068,0.067,0.102,0.102c0.033,0.036,0.069,0.069,0.104,0.104c0.036,0.039,0.076,0.076,0.112,0.113    c0.033,0.035,0.07,0.068,0.104,0.104s0.071,0.07,0.106,0.105c0.033,0.036,0.07,0.071,0.105,0.106    c0.034,0.037,0.072,0.071,0.107,0.108c0.033,0.033,0.068,0.067,0.104,0.103c0.034,0.037,0.072,0.071,0.108,0.108    c0.032,0.035,0.069,0.068,0.104,0.104c0.033,0.037,0.07,0.072,0.106,0.107c0.034,0.035,0.071,0.07,0.106,0.105    c0.033,0.036,0.07,0.071,0.105,0.105c0.034,0.037,0.071,0.072,0.107,0.107c0.033,0.035,0.068,0.069,0.104,0.104    c0.035,0.037,0.073,0.074,0.109,0.111c0.033,0.033,0.068,0.067,0.104,0.103c0.034,0.036,0.071,0.071,0.107,0.106    c0.033,0.036,0.07,0.071,0.105,0.106c0.034,0.036,0.071,0.071,0.106,0.106c0.034,0.035,0.071,0.07,0.106,0.105    c0.033,0.037,0.071,0.072,0.107,0.107c0.032,0.035,0.066,0.067,0.102,0.102c0.035,0.038,0.072,0.074,0.109,0.111    c0.033,0.035,0.07,0.068,0.105,0.104c0.033,0.036,0.07,0.071,0.105,0.106c1.823,1.954,5.249,3.22,8.816,3.22    C69.912,79,74,76,74,72C74,70.627,73.334,69.545,72.357,68.583z" enable-background="new    " fill="url(#SVGID_3_)" opacity="0.5"/></g></g><path d="M37,34c0,0-2-1.15-2-2c0,0-0.498-1.828,1-3c1.537-1.2,3-3.035,3-5c0-2.336-1.045-5-3-6h3l2.387-1  c0,0-7.063,0-9.386,0c-4.165,0-8,3.345-8,7c0,3.735,2.849,6.561,7.086,6.561c0.295,0,0.581-0.006,0.861-0.025  c-0.274,0.525-0.473,1.119-0.473,1.734c0,1.037,0.818,2.042,1.524,2.73c-0.534,0-1.438,0-2,0c-5.159,0-9,2.593-9,6  c0,3.355,4.872,6,10.031,6c5.882,0,9.97-3,9.97-7C42,37.311,39.455,35.736,37,34z M33,30c-2.396,0-5.586-2.857-6-6  c-0.413-3.144,1.606-6.071,4-6c2.395,0.071,4.604,2.908,5.018,6.052C36.43,27.195,35,30,33,30z M32,45c-3.566,0-7-1.289-7-4  c0-2.658,3.434-5.038,7-5c0.832,0.009,2,0,2,0c1,0,2.881,0.881,4,2c1,1,1,2.674,1,3C39,44,37.016,45,32,45z" fill="#FFFFFF" id="g_1_"/></svg>