<?xml version="1.0" ?><!DOCTYPE svg  PUBLIC '-//W3C//DTD SVG 1.1//EN'  'http://www.w3.org/Graphics/SVG/1.1/DTD/svg11.dtd'><svg enable-background="new 0 0 64 64" height="64px" id="RSS" version="1.1" viewBox="0 0 64 64" width="64px" xml:space="preserve" xmlns="http://www.w3.org/2000/svg" xmlns:xlink="http://www.w3.org/1999/xlink"><linearGradient gradientTransform="matrix(1 0 0 -1 -1918 -2480)" gradientUnits="userSpaceOnUse" id="Circle_Shadow_1_" x1="1982.0313" x2="1950.0313" y1="-2543.999" y2="-2511.999"><stop offset="0.3163" style="stop-color:#FFFFFF;stop-opacity:0"/><stop offset="0.3508" style="stop-color:#E9E9E9;stop-opacity:0.0504"/><stop offset="0.4543" style="stop-color:#ACACAC;stop-opacity:0.2018"/><stop offset="0.5572" style="stop-color:#787878;stop-opacity:0.3523"/><stop offset="0.6569" style="stop-color:#4D4D4D;stop-opacity:0.4981"/><stop offset="0.7528" style="stop-color:#2B2B2B;stop-opacity:0.6385"/><stop offset="0.8441" style="stop-color:#131313;stop-opacity:0.7719"/><stop offset="0.9286" style="stop-color:#050505;stop-opacity:0.8956"/><stop offset="1" style="stop-color:#000000"/></linearGradient><polygon enable-background="new    " fill="url(#Circle_Shadow_1_)" id="Circle_Shadow" opacity="0.2" points="64.029,64   64.029,30.059 49,15.029 15.059,48.971 30.088,64 "/><circle cx="32" cy="32" fill="#F2890A" id="Circle" r="24"/><g id="_x2E__x29__x29__Shadow"><g><g><defs><circle cx="32.029" cy="32" id="SVGID_1_" r="24"/></defs><clipPath id="SVGID_2_"><use overflow="visible" xlink:href="#SVGID_1_"/></clipPath><g clip-path="url(#SVGID_2_)" enable-background="new    " opacity="0.15"><linearGradient gradientTransform="matrix(1 0 0 1 -548 -727)" gradientUnits="userSpaceOnUse" id="SVGID_3_" x1="605.2705" x2="568.8442" y1="801.6309" y2="765.2045"><stop offset="0.4847" style="stop-color:#000000;stop-opacity:0"/><stop offset="1" style="stop-color:#000000"/></linearGradient><path d="M57.833,69.012c-0.035-0.035-0.074-0.066-0.11-0.101c-0.035-0.036-0.074-0.065-0.109-0.101      c-0.033-0.035-0.072-0.064-0.107-0.1c-0.033-0.035-0.072-0.064-0.107-0.102c-0.035-0.033-0.073-0.063-0.109-0.1      c-0.036-0.035-0.076-0.066-0.113-0.103c-0.033-0.034-0.07-0.063-0.105-0.097c-0.033-0.035-0.073-0.066-0.11-0.104      c-0.033-0.034-0.069-0.063-0.104-0.098c-0.037-0.036-0.076-0.067-0.113-0.104c-0.033-0.035-0.072-0.064-0.107-0.099      c-0.035-0.036-0.074-0.065-0.111-0.101c-0.032-0.037-0.071-0.066-0.107-0.102c-0.034-0.035-0.073-0.064-0.107-0.1      c-0.035-0.035-0.072-0.064-0.109-0.1c-0.034-0.037-0.074-0.066-0.11-0.104c-0.034-0.034-0.073-0.063-0.108-0.098      c-0.035-0.037-0.073-0.065-0.107-0.101c-0.035-0.035-0.073-0.063-0.109-0.101c-0.033-0.035-0.074-0.065-0.109-0.103      c-0.035-0.034-0.074-0.063-0.108-0.099c-0.035-0.035-0.073-0.064-0.11-0.1c-0.033-0.035-0.072-0.064-0.106-0.101      c-0.035-0.036-0.074-0.065-0.111-0.103c-0.034-0.033-0.073-0.063-0.106-0.1c-0.035-0.035-0.074-0.064-0.109-0.1      c-0.035-0.036-0.074-0.064-0.109-0.101s-0.074-0.065-0.11-0.102c-0.033-0.035-0.072-0.064-0.107-0.101      c-0.034-0.033-0.073-0.063-0.108-0.1c-0.035-0.035-0.074-0.066-0.111-0.102c-0.033-0.035-0.072-0.064-0.107-0.101      c-0.035-0.034-0.074-0.063-0.109-0.099c-0.034-0.036-0.073-0.065-0.109-0.102c-0.033-0.035-0.072-0.064-0.107-0.1      s-0.074-0.066-0.109-0.102s-0.073-0.064-0.107-0.099c-0.035-0.034-0.074-0.065-0.109-0.101c-0.034-0.036-0.073-0.065-0.11-0.102      c-0.033-0.035-0.073-0.064-0.108-0.102c-0.035-0.035-0.074-0.064-0.109-0.1c-0.033-0.035-0.072-0.063-0.106-0.099      c-0.036-0.037-0.077-0.067-0.114-0.104c-0.033-0.032-0.069-0.063-0.104-0.094c-0.034-0.035-0.072-0.066-0.108-0.102      c-0.035-0.035-0.074-0.066-0.109-0.102c-0.035-0.037-0.074-0.066-0.111-0.103c-0.033-0.035-0.072-0.063-0.107-0.101      c-0.035-0.034-0.074-0.063-0.108-0.1c-0.035-0.035-0.074-0.066-0.111-0.103c-0.034-0.034-0.071-0.063-0.106-0.097      c-0.035-0.035-0.072-0.064-0.109-0.101c-0.034-0.037-0.072-0.065-0.109-0.103c-0.035-0.034-0.074-0.063-0.108-0.1      c-0.035-0.035-0.072-0.064-0.107-0.098c-0.034-0.037-0.075-0.067-0.112-0.104c-0.031-0.035-0.07-0.064-0.105-0.099      c-0.035-0.037-0.076-0.067-0.111-0.104c-0.035-0.033-0.072-0.063-0.106-0.098c-0.035-0.033-0.074-0.064-0.109-0.1      c-0.034-0.035-0.073-0.065-0.108-0.102c-0.037-0.035-0.075-0.066-0.111-0.103c-0.035-0.035-0.072-0.063-0.107-0.099      s-0.072-0.063-0.109-0.1c-0.034-0.036-0.073-0.066-0.11-0.102c-0.033-0.035-0.071-0.064-0.106-0.1s-0.074-0.064-0.11-0.101      c-0.034-0.035-0.073-0.065-0.108-0.101c-0.033-0.035-0.072-0.063-0.107-0.1s-0.075-0.066-0.11-0.104      c-0.035-0.033-0.074-0.064-0.11-0.1c-0.035-0.035-0.072-0.063-0.107-0.099s-0.074-0.065-0.109-0.101      c-0.035-0.037-0.074-0.065-0.107-0.1c-0.034-0.035-0.072-0.064-0.106-0.098c-0.037-0.037-0.078-0.07-0.114-0.105      c-0.033-0.033-0.072-0.063-0.105-0.096c-0.036-0.037-0.075-0.067-0.111-0.104c-0.035-0.035-0.072-0.063-0.107-0.099      s-0.074-0.065-0.109-0.101c-0.034-0.037-0.073-0.065-0.11-0.102c-0.032-0.035-0.071-0.064-0.106-0.1      c-0.035-0.036-0.073-0.064-0.109-0.1c-0.035-0.035-0.072-0.064-0.109-0.101c-0.035-0.036-0.074-0.067-0.11-0.104      c-0.034-0.033-0.072-0.063-0.107-0.097c-0.034-0.034-0.071-0.065-0.108-0.101c-0.034-0.035-0.074-0.065-0.11-0.103      c-0.034-0.034-0.073-0.063-0.108-0.098c-0.033-0.035-0.072-0.065-0.106-0.101c-0.036-0.037-0.076-0.067-0.114-0.104      c-0.031-0.034-0.07-0.063-0.104-0.096c-0.035-0.036-0.075-0.067-0.112-0.104c-0.034-0.035-0.071-0.064-0.106-0.098      c-0.035-0.035-0.074-0.066-0.109-0.102s-0.074-0.066-0.11-0.102c-0.033-0.035-0.071-0.064-0.106-0.1      c-0.035-0.034-0.074-0.064-0.109-0.101s-0.074-0.065-0.111-0.101c-0.033-0.036-0.072-0.066-0.109-0.102      c-0.032-0.033-0.071-0.064-0.106-0.099c-0.035-0.036-0.074-0.065-0.11-0.103c-0.033-0.035-0.072-0.063-0.107-0.099      c-0.035-0.036-0.074-0.065-0.11-0.101c-0.034-0.035-0.073-0.065-0.108-0.1c-0.033-0.035-0.071-0.064-0.107-0.101      c-0.035-0.036-0.075-0.065-0.109-0.103c-0.035-0.035-0.074-0.063-0.109-0.1c-0.034-0.035-0.072-0.064-0.108-0.1      c-0.034-0.034-0.073-0.065-0.11-0.102c-0.035-0.035-0.074-0.064-0.109-0.101c-0.033-0.034-0.071-0.063-0.104-0.097      c-0.037-0.037-0.076-0.068-0.115-0.104c-0.032-0.034-0.07-0.063-0.104-0.098c-0.035-0.034-0.073-0.065-0.11-0.102      c-0.035-0.035-0.074-0.066-0.11-0.101c-0.034-0.036-0.073-0.066-0.109-0.101c-0.032-0.035-0.071-0.065-0.108-0.101      c-0.033-0.035-0.072-0.063-0.107-0.101c-0.035-0.033-0.073-0.063-0.109-0.1c-0.035-0.035-0.072-0.064-0.109-0.1      c-0.033-0.036-0.072-0.066-0.109-0.102c-0.035-0.035-0.072-0.065-0.109-0.102c-0.033-0.034-0.07-0.063-0.104-0.098      c-0.035-0.035-0.075-0.066-0.113-0.104c-0.034-0.035-0.073-0.066-0.108-0.1c-0.034-0.035-0.073-0.064-0.107-0.1      c-0.035-0.035-0.072-0.064-0.107-0.101s-0.074-0.063-0.109-0.101c-0.035-0.035-0.074-0.065-0.111-0.102      c-0.033-0.035-0.072-0.066-0.109-0.1c-0.035-0.036-0.073-0.066-0.108-0.101c-0.034-0.034-0.072-0.065-0.108-0.1      c-0.033-0.036-0.072-0.065-0.109-0.103c-0.033-0.033-0.072-0.063-0.107-0.099c-0.035-0.036-0.074-0.065-0.111-0.101      c-0.033-0.035-0.071-0.064-0.106-0.101s-0.073-0.063-0.108-0.1s-0.076-0.066-0.111-0.103c-0.035-0.035-0.072-0.063-0.107-0.099      c-0.035-0.036-0.074-0.065-0.109-0.101c-0.035-0.034-0.072-0.064-0.106-0.099c-0.035-0.036-0.074-0.065-0.11-0.102      c-0.035-0.036-0.074-0.066-0.109-0.103c-0.035-0.033-0.072-0.063-0.109-0.099c-0.034-0.036-0.074-0.067-0.109-0.103      s-0.072-0.063-0.106-0.099c-0.035-0.034-0.074-0.065-0.109-0.101c-0.034-0.035-0.073-0.065-0.11-0.102      c-0.033-0.035-0.072-0.063-0.107-0.1s-0.074-0.066-0.111-0.102c-0.033-0.035-0.07-0.063-0.104-0.099      c-0.037-0.035-0.076-0.067-0.113-0.104c-0.034-0.033-0.073-0.063-0.108-0.098c-0.035-0.035-0.072-0.064-0.109-0.101      c-0.033-0.034-0.072-0.065-0.107-0.099c-0.033-0.035-0.072-0.064-0.107-0.101c-0.034-0.035-0.075-0.065-0.11-0.103      c-0.035-0.035-0.073-0.065-0.108-0.1c-0.035-0.035-0.074-0.066-0.109-0.102c-0.035-0.036-0.074-0.064-0.111-0.1      c-0.033-0.035-0.07-0.065-0.107-0.101c-0.033-0.035-0.071-0.063-0.108-0.101c-0.035-0.035-0.074-0.065-0.108-0.102      c-0.035-0.033-0.074-0.064-0.109-0.1c-0.033-0.035-0.074-0.064-0.109-0.102c-0.035-0.033-0.072-0.064-0.107-0.099      c-0.035-0.035-0.074-0.063-0.108-0.101c-0.035-0.035-0.074-0.065-0.111-0.102c-0.034-0.034-0.073-0.064-0.108-0.102      c-0.034-0.033-0.072-0.063-0.107-0.098s-0.074-0.064-0.109-0.101s-0.074-0.065-0.109-0.101c-0.034-0.035-0.073-0.065-0.108-0.1      c-0.034-0.037-0.075-0.068-0.112-0.104c-0.033-0.033-0.07-0.063-0.105-0.098c-0.035-0.035-0.074-0.066-0.109-0.101      c-0.033-0.035-0.072-0.065-0.109-0.101c-0.034-0.037-0.073-0.065-0.11-0.102c-0.032-0.035-0.071-0.064-0.106-0.1      c-0.033-0.035-0.071-0.064-0.107-0.099c-0.035-0.036-0.074-0.067-0.111-0.104c-0.033-0.034-0.072-0.063-0.109-0.1      c-0.033-0.035-0.072-0.063-0.108-0.1c-0.035-0.035-0.074-0.066-0.108-0.102c-0.035-0.033-0.072-0.063-0.107-0.099      s-0.074-0.067-0.111-0.103c-0.035-0.034-0.072-0.063-0.107-0.099c-0.034-0.036-0.073-0.065-0.109-0.101      c-0.034-0.035-0.073-0.064-0.107-0.1c-0.035-0.035-0.072-0.064-0.108-0.101c-0.036-0.037-0.076-0.067-0.114-0.104      c-0.033-0.035-0.07-0.063-0.104-0.096c-0.037-0.037-0.075-0.068-0.112-0.104c-0.034-0.035-0.073-0.064-0.108-0.1      s-0.072-0.064-0.109-0.1c-0.033-0.036-0.073-0.066-0.109-0.102c-0.034-0.035-0.072-0.064-0.107-0.101s-0.074-0.065-0.11-0.101      c-0.033-0.035-0.071-0.063-0.106-0.098c-0.035-0.035-0.076-0.066-0.113-0.104c-0.033-0.034-0.07-0.063-0.105-0.099      c-0.034-0.035-0.073-0.063-0.107-0.1c-0.035-0.036-0.074-0.064-0.109-0.1c-0.035-0.037-0.074-0.066-0.111-0.103      c-0.033-0.034-0.072-0.063-0.109-0.1c-0.033-0.035-0.071-0.065-0.108-0.101c-0.034-0.035-0.072-0.064-0.106-0.101      c-0.035-0.036-0.074-0.065-0.111-0.101c-0.033-0.033-0.07-0.063-0.105-0.098c-0.035-0.035-0.076-0.068-0.113-0.104      c-0.035-0.034-0.072-0.063-0.106-0.096c-0.034-0.035-0.072-0.065-0.106-0.101c-0.035-0.037-0.076-0.067-0.113-0.104      c-0.033-0.034-0.072-0.063-0.107-0.099c-0.035-0.036-0.074-0.065-0.109-0.101c-0.035-0.036-0.072-0.064-0.106-0.098      c-0.035-0.035-0.074-0.066-0.11-0.103c-0.035-0.036-0.074-0.065-0.111-0.104c-0.033-0.033-0.071-0.063-0.106-0.097      c-0.035-0.036-0.074-0.065-0.11-0.103c-0.035-0.033-0.072-0.063-0.106-0.098c-0.035-0.035-0.074-0.066-0.111-0.103      c-0.034-0.035-0.071-0.063-0.106-0.099c-0.035-0.037-0.074-0.065-0.11-0.102c-0.034-0.035-0.074-0.066-0.11-0.102      c-0.033-0.034-0.072-0.063-0.107-0.098c-0.034-0.035-0.073-0.066-0.108-0.102c-0.035-0.036-0.075-0.064-0.11-0.104      c-0.033-0.033-0.072-0.063-0.106-0.098c-0.035-0.035-0.075-0.066-0.111-0.102c-0.034-0.034-0.071-0.063-0.106-0.099      c-0.035-0.034-0.074-0.065-0.111-0.102c-0.035-0.035-0.075-0.066-0.111-0.103c-0.035-0.035-0.073-0.063-0.109-0.099      c-0.035-0.034-0.074-0.065-0.111-0.101c-0.034-0.035-0.071-0.063-0.106-0.099c-0.036-0.034-0.076-0.065-0.113-0.103      c-0.034-0.035-0.072-0.063-0.108-0.1c-0.035-0.035-0.073-0.063-0.109-0.1c-0.035-0.035-0.074-0.066-0.11-0.102      c-0.035-0.035-0.073-0.064-0.109-0.099c-0.035-0.037-0.074-0.065-0.11-0.103c-0.034-0.034-0.073-0.063-0.109-0.1      c-0.035-0.035-0.073-0.064-0.109-0.1c-0.035-0.035-0.075-0.066-0.111-0.102c-0.035-0.035-0.073-0.065-0.109-0.101      c-0.035-0.035-0.074-0.065-0.11-0.101c-0.034-0.035-0.072-0.063-0.108-0.1c-0.035-0.035-0.075-0.066-0.111-0.102      c-0.035-0.036-0.074-0.066-0.11-0.1c-0.035-0.035-0.073-0.065-0.109-0.101c-0.034-0.035-0.072-0.063-0.108-0.099      c-0.036-0.037-0.075-0.067-0.112-0.104c-0.034-0.035-0.071-0.063-0.106-0.098c-0.036-0.035-0.075-0.066-0.112-0.104      c-0.034-0.035-0.073-0.064-0.109-0.099c-0.034-0.035-0.072-0.063-0.108-0.101c-0.035-0.035-0.073-0.063-0.109-0.1      c-0.035-0.037-0.075-0.066-0.112-0.104c-0.034-0.034-0.073-0.064-0.108-0.098c-0.035-0.037-0.074-0.066-0.11-0.103      c-0.034-0.035-0.073-0.063-0.109-0.101c-0.035-0.035-0.074-0.065-0.111-0.102c-0.034-0.033-0.072-0.063-0.107-0.098      c-0.035-0.035-0.075-0.066-0.111-0.103c-0.035-0.034-0.074-0.063-0.11-0.1c-0.034-0.035-0.072-0.064-0.108-0.099      c-0.035-0.035-0.074-0.065-0.111-0.102c-0.034-0.035-0.073-0.064-0.108-0.1c-0.036-0.036-0.075-0.066-0.112-0.103      c-0.034-0.034-0.072-0.063-0.107-0.098c-0.035-0.035-0.075-0.066-0.111-0.103c-0.034-0.035-0.072-0.063-0.108-0.1      c-0.035-0.035-0.074-0.064-0.111-0.102c-0.035-0.035-0.073-0.064-0.108-0.099c-0.035-0.036-0.075-0.067-0.111-0.103      c-0.034-0.034-0.072-0.063-0.107-0.098c-0.036-0.037-0.075-0.068-0.112-0.104c-0.034-0.035-0.072-0.063-0.107-0.098      c-0.036-0.037-0.075-0.066-0.112-0.103c-0.034-0.035-0.073-0.065-0.108-0.101c-0.035-0.034-0.074-0.065-0.111-0.101      c-0.035-0.034-0.074-0.065-0.11-0.101c-0.034-0.035-0.072-0.063-0.108-0.1c-0.035-0.035-0.074-0.064-0.11-0.101      c-0.035-0.035-0.074-0.065-0.11-0.101c-0.034-0.034-0.073-0.065-0.108-0.101c-0.035-0.034-0.074-0.065-0.111-0.101      c-0.034-0.035-0.073-0.064-0.108-0.1c-0.036-0.035-0.075-0.066-0.112-0.103c-0.034-0.033-0.071-0.063-0.106-0.097      c-0.036-0.037-0.075-0.067-0.112-0.104c-0.034-0.035-0.073-0.064-0.108-0.1c-0.035-0.035-0.073-0.064-0.109-0.1      c-0.035-0.035-0.074-0.066-0.11-0.101c-0.035-0.036-0.074-0.065-0.11-0.103c-0.034-0.033-0.072-0.063-0.107-0.098      c-0.035-0.036-0.074-0.066-0.111-0.102c-0.035-0.035-0.074-0.065-0.11-0.102c-0.629-0.644-1.504-1.044-2.475-1.044      c-1.915,0-3.467,1.554-3.467,3.468c0,0.998,0.427,1.891,1.102,2.521c0.035,0.034,0.073,0.065,0.109,0.101      c0.035,0.036,0.074,0.065,0.11,0.102c0.034,0.035,0.072,0.064,0.108,0.099c0.035,0.036,0.074,0.065,0.111,0.103      c0.035,0.035,0.074,0.064,0.11,0.099c0.035,0.037,0.074,0.065,0.11,0.103c0.034,0.033,0.073,0.063,0.108,0.098      c0.035,0.037,0.074,0.066,0.111,0.103c0.034,0.034,0.073,0.063,0.108,0.099c0.034,0.035,0.073,0.064,0.109,0.101      c0.035,0.035,0.075,0.065,0.112,0.103c0.035,0.035,0.074,0.065,0.11,0.1c0.034,0.035,0.071,0.064,0.107,0.099      c0.035,0.036,0.075,0.067,0.112,0.103c0.034,0.035,0.073,0.064,0.109,0.101c0.035,0.035,0.074,0.063,0.11,0.101      c0.035,0.035,0.074,0.065,0.11,0.1c0.035,0.037,0.073,0.066,0.109,0.102c0.034,0.034,0.072,0.063,0.108,0.098      c0.035,0.037,0.075,0.068,0.112,0.104c0.035,0.034,0.073,0.064,0.109,0.1c0.034,0.035,0.071,0.063,0.106,0.098      c0.036,0.037,0.076,0.068,0.114,0.104c0.034,0.034,0.072,0.063,0.107,0.098c0.035,0.035,0.075,0.066,0.112,0.103      c0.034,0.034,0.073,0.065,0.108,0.099c0.035,0.037,0.074,0.066,0.11,0.103c0.034,0.035,0.073,0.063,0.108,0.099      c0.035,0.036,0.075,0.065,0.111,0.104c0.035,0.033,0.073,0.063,0.109,0.099c0.034,0.034,0.073,0.065,0.108,0.099      c0.035,0.037,0.075,0.066,0.111,0.103c0.034,0.035,0.073,0.065,0.109,0.101c0.035,0.035,0.074,0.063,0.11,0.1      c0.035,0.035,0.074,0.066,0.11,0.102c0.034,0.033,0.072,0.064,0.107,0.098c0.035,0.035,0.075,0.066,0.111,0.103      c0.034,0.035,0.073,0.063,0.108,0.099c0.035,0.037,0.074,0.065,0.11,0.102c0.035,0.036,0.075,0.066,0.111,0.102      c0.034,0.035,0.073,0.064,0.108,0.1c0.034,0.033,0.072,0.063,0.108,0.099c0.036,0.037,0.075,0.067,0.112,0.104      c0.035,0.035,0.074,0.063,0.11,0.1c0.034,0.034,0.071,0.063,0.106,0.096c0.036,0.037,0.076,0.068,0.113,0.104      c0.035,0.034,0.073,0.065,0.109,0.099c0.034,0.035,0.072,0.064,0.107,0.1c0.036,0.035,0.075,0.066,0.112,0.103      c0.035,0.035,0.074,0.065,0.11,0.101c0.034,0.034,0.072,0.063,0.107,0.098c0.035,0.035,0.075,0.066,0.112,0.104      c0.035,0.035,0.073,0.064,0.109,0.1c0.034,0.035,0.072,0.063,0.107,0.099c0.036,0.036,0.075,0.067,0.112,0.104      c0.035,0.033,0.073,0.063,0.109,0.098c0.034,0.035,0.072,0.064,0.108,0.1c0.035,0.035,0.074,0.065,0.111,0.102      c0.035,0.035,0.074,0.064,0.111,0.101c0.034,0.035,0.072,0.065,0.107,0.101c0.035,0.035,0.074,0.065,0.111,0.101      c0.035,0.035,0.073,0.065,0.109,0.101c0.035,0.035,0.073,0.064,0.109,0.1c0.035,0.035,0.074,0.066,0.111,0.103      c0.034,0.034,0.072,0.063,0.108,0.099c0.035,0.035,0.074,0.065,0.111,0.101c0.035,0.036,0.074,0.065,0.11,0.101      c0.034,0.035,0.072,0.064,0.107,0.1c0.036,0.035,0.075,0.064,0.112,0.103c0.034,0.034,0.073,0.063,0.108,0.099      c0.035,0.035,0.074,0.065,0.11,0.101c0.035,0.035,0.073,0.065,0.109,0.101c0.035,0.035,0.074,0.064,0.11,0.101      c0.034,0.034,0.073,0.063,0.108,0.1c0.035,0.035,0.075,0.066,0.112,0.103c0.035,0.035,0.074,0.066,0.11,0.101      c0.034,0.034,0.071,0.063,0.106,0.097c0.036,0.037,0.075,0.067,0.112,0.104c0.035,0.035,0.074,0.063,0.11,0.101      c0.034,0.033,0.072,0.063,0.107,0.098s0.074,0.066,0.11,0.102c0.035,0.035,0.074,0.066,0.11,0.1      c0.034,0.035,0.073,0.065,0.108,0.101c0.036,0.036,0.075,0.065,0.112,0.104c0.034,0.032,0.072,0.063,0.108,0.097      c0.034,0.034,0.073,0.065,0.108,0.1c0.036,0.036,0.076,0.067,0.113,0.103c0.034,0.035,0.073,0.065,0.109,0.101      c0.034,0.035,0.072,0.063,0.107,0.099c0.035,0.034,0.073,0.064,0.109,0.101c0.036,0.036,0.075,0.067,0.111,0.103      c0.035,0.034,0.073,0.064,0.109,0.1c0.035,0.035,0.075,0.065,0.111,0.102c0.034,0.034,0.072,0.063,0.107,0.098      c0.035,0.035,0.074,0.065,0.11,0.102c0.035,0.035,0.074,0.066,0.11,0.1c0.035,0.036,0.074,0.066,0.11,0.103      c0.034,0.034,0.073,0.063,0.108,0.099c0.036,0.036,0.075,0.066,0.112,0.104c0.034,0.035,0.072,0.063,0.107,0.098      s0.073,0.066,0.109,0.1c0.035,0.036,0.074,0.066,0.11,0.103c0.034,0.034,0.072,0.063,0.108,0.099      c0.036,0.036,0.076,0.067,0.113,0.104c0.034,0.035,0.072,0.063,0.107,0.098c0.035,0.035,0.073,0.064,0.109,0.1      c0.036,0.036,0.075,0.067,0.111,0.103c0.035,0.034,0.074,0.065,0.111,0.103c0.034,0.033,0.072,0.063,0.107,0.098      c0.035,0.035,0.073,0.064,0.109,0.1c0.035,0.037,0.075,0.066,0.111,0.102c0.035,0.035,0.073,0.065,0.108,0.101      c0.035,0.034,0.074,0.065,0.109,0.101c0.035,0.036,0.074,0.065,0.109,0.102c0.035,0.035,0.073,0.064,0.109,0.1      c0.033,0.035,0.072,0.066,0.109,0.102c0.033,0.035,0.072,0.063,0.107,0.099s0.075,0.065,0.111,0.103      c0.033,0.033,0.072,0.063,0.107,0.098c0.033,0.037,0.073,0.066,0.111,0.104c0.033,0.034,0.07,0.063,0.105,0.098      c0.033,0.035,0.072,0.065,0.109,0.101c0.035,0.035,0.074,0.065,0.11,0.103c0.034,0.035,0.073,0.063,0.108,0.1      c0.033,0.035,0.073,0.064,0.109,0.101c0.034,0.035,0.073,0.065,0.107,0.099c0.033,0.035,0.072,0.065,0.107,0.101      s0.074,0.065,0.111,0.103c0.035,0.035,0.074,0.065,0.111,0.102c0.033,0.035,0.069,0.063,0.105,0.098      c0.034,0.035,0.073,0.066,0.109,0.103c0.033,0.034,0.072,0.063,0.109,0.1c0.033,0.033,0.071,0.063,0.106,0.099      c0.036,0.037,0.075,0.067,0.112,0.104c0.035,0.035,0.074,0.064,0.108,0.1c0.034,0.034,0.071,0.063,0.106,0.098      c0.033,0.035,0.072,0.066,0.109,0.101c0.035,0.035,0.072,0.065,0.109,0.101c0.035,0.037,0.075,0.067,0.111,0.104      c0.035,0.035,0.074,0.063,0.109,0.099c0.032,0.033,0.07,0.063,0.105,0.097c0.033,0.036,0.072,0.065,0.107,0.101      c0.037,0.037,0.076,0.068,0.113,0.104c0.032,0.035,0.07,0.063,0.105,0.099s0.074,0.065,0.111,0.103      c0.034,0.035,0.073,0.063,0.107,0.1c0.035,0.035,0.074,0.064,0.109,0.1c0.035,0.037,0.074,0.066,0.109,0.102      c0.035,0.037,0.074,0.066,0.111,0.103c0.033,0.033,0.07,0.063,0.105,0.095c0.034,0.037,0.073,0.067,0.108,0.104      s0.075,0.066,0.11,0.102c0.033,0.035,0.072,0.064,0.109,0.1c0.033,0.035,0.072,0.064,0.108,0.101      c0.034,0.035,0.073,0.065,0.11,0.101c0.033,0.035,0.071,0.063,0.106,0.1c0.034,0.035,0.073,0.064,0.108,0.1      s0.072,0.066,0.109,0.102c0.035,0.035,0.074,0.064,0.11,0.101c0.034,0.037,0.073,0.066,0.108,0.101      c0.035,0.035,0.071,0.063,0.106,0.1c0.037,0.036,0.076,0.066,0.113,0.104c0.034,0.033,0.071,0.063,0.108,0.099      c0.033,0.034,0.07,0.063,0.107,0.1c0.034,0.035,0.072,0.065,0.107,0.101s0.074,0.065,0.108,0.1      c0.035,0.036,0.076,0.066,0.111,0.104c0.034,0.033,0.073,0.064,0.108,0.099c0.035,0.036,0.074,0.065,0.109,0.103      c0.033,0.032,0.071,0.063,0.105,0.096c0.035,0.037,0.076,0.068,0.113,0.104c0.034,0.035,0.071,0.064,0.108,0.098      c0.032,0.035,0.071,0.066,0.106,0.101c0.035,0.035,0.072,0.063,0.109,0.101c0.035,0.036,0.074,0.065,0.109,0.103      c0.035,0.034,0.072,0.063,0.107,0.099c0.036,0.035,0.075,0.066,0.112,0.104c0.035,0.033,0.073,0.064,0.11,0.101      c0.033,0.033,0.07,0.063,0.104,0.097c0.035,0.034,0.074,0.065,0.111,0.102c0.033,0.035,0.072,0.066,0.107,0.1      c0.035,0.036,0.075,0.067,0.11,0.104c0.035,0.033,0.074,0.064,0.108,0.099c0.035,0.035,0.074,0.063,0.109,0.101      c0.035,0.035,0.074,0.065,0.111,0.103c0.033,0.032,0.07,0.063,0.105,0.097c0.035,0.035,0.073,0.066,0.11,0.104      c0.035,0.033,0.072,0.063,0.106,0.098c0.035,0.035,0.074,0.064,0.109,0.102c0.035,0.035,0.074,0.065,0.111,0.103      c0.035,0.035,0.074,0.063,0.107,0.099c0.035,0.036,0.074,0.064,0.108,0.101c0.035,0.036,0.072,0.063,0.109,0.1      c0.034,0.035,0.073,0.065,0.11,0.103c0.033,0.035,0.071,0.063,0.107,0.099c0.035,0.035,0.072,0.065,0.107,0.101      s0.076,0.066,0.111,0.103c0.034,0.034,0.071,0.063,0.108,0.098c0.034,0.036,0.073,0.066,0.108,0.103      c0.035,0.035,0.074,0.064,0.11,0.101c0.034,0.035,0.073,0.065,0.108,0.099c0.033,0.035,0.072,0.065,0.107,0.101      c0.035,0.034,0.073,0.065,0.108,0.1c0.034,0.036,0.073,0.066,0.11,0.103c0.033,0.035,0.072,0.063,0.109,0.101      c0.033,0.034,0.072,0.063,0.107,0.099c0.035,0.037,0.074,0.066,0.109,0.103c0.035,0.035,0.073,0.063,0.109,0.099      c0.034,0.036,0.072,0.066,0.109,0.102c0.035,0.035,0.072,0.064,0.107,0.1c0.034,0.035,0.072,0.064,0.107,0.1      s0.074,0.065,0.109,0.102c0.036,0.036,0.076,0.066,0.113,0.104c0.032,0.033,0.071,0.063,0.104,0.096      c0.037,0.037,0.076,0.068,0.113,0.104c0.034,0.034,0.072,0.063,0.107,0.098s0.072,0.065,0.109,0.101      c0.033,0.036,0.071,0.065,0.107,0.101c0.035,0.035,0.073,0.065,0.109,0.101c0.035,0.034,0.074,0.065,0.111,0.103      c0.032,0.034,0.07,0.063,0.105,0.098c0.035,0.035,0.074,0.065,0.111,0.103c0.035,0.034,0.072,0.065,0.107,0.099      c0.035,0.035,0.073,0.065,0.108,0.101c0.034,0.034,0.073,0.065,0.108,0.1c0.034,0.036,0.073,0.066,0.109,0.103      c0.035,0.033,0.072,0.064,0.109,0.1c0.035,0.035,0.074,0.066,0.109,0.102c0.034,0.035,0.073,0.065,0.109,0.101      c0.033,0.035,0.072,0.065,0.109,0.101c0.035,0.035,0.072,0.065,0.108,0.1c0.034,0.035,0.072,0.064,0.108,0.1      c0.035,0.035,0.072,0.066,0.109,0.1c0.033,0.037,0.071,0.066,0.108,0.103c0.035,0.035,0.073,0.065,0.11,0.101      c0.033,0.035,0.072,0.063,0.106,0.1c0.035,0.033,0.073,0.064,0.109,0.1c0.034,0.035,0.075,0.066,0.112,0.104      c0.032,0.033,0.069,0.063,0.104,0.097c0.035,0.035,0.074,0.065,0.108,0.103c0.035,0.035,0.074,0.065,0.111,0.102      c0.033,0.033,0.072,0.063,0.107,0.098s0.074,0.066,0.111,0.102c0.033,0.035,0.071,0.065,0.106,0.101s0.073,0.065,0.108,0.101      s0.074,0.065,0.111,0.102c0.033,0.035,0.072,0.064,0.108,0.1c0.034,0.035,0.071,0.064,0.108,0.1      c0.035,0.035,0.071,0.065,0.108,0.101c0.035,0.035,0.074,0.065,0.111,0.103c0.034,0.035,0.071,0.063,0.106,0.098      c0.035,0.035,0.072,0.066,0.108,0.102c0.035,0.035,0.073,0.064,0.108,0.1c0.037,0.037,0.076,0.068,0.113,0.103      c0.032,0.035,0.07,0.063,0.105,0.099c0.033,0.035,0.072,0.063,0.107,0.1c0.035,0.035,0.072,0.064,0.108,0.102      c0.036,0.035,0.077,0.068,0.115,0.104c0.032,0.033,0.069,0.063,0.104,0.097c0.035,0.035,0.074,0.063,0.11,0.101      c0.033,0.035,0.072,0.065,0.109,0.102c0.033,0.034,0.072,0.064,0.107,0.1c0.035,0.034,0.073,0.064,0.109,0.1      c0.035,0.035,0.074,0.064,0.111,0.103c0.032,0.033,0.071,0.063,0.106,0.099s0.073,0.065,0.11,0.102      c0.033,0.034,0.072,0.064,0.107,0.098c0.035,0.037,0.074,0.066,0.11,0.104c0.034,0.035,0.073,0.064,0.108,0.101      c0.034,0.033,0.073,0.063,0.108,0.099c0.034,0.035,0.072,0.065,0.108,0.1c0.035,0.036,0.074,0.066,0.111,0.104      c0.033,0.033,0.072,0.063,0.106,0.099c0.034,0.034,0.071,0.063,0.108,0.098c0.032,0.037,0.071,0.066,0.108,0.103      c0.035,0.037,0.076,0.068,0.112,0.104c0.033,0.034,0.07,0.063,0.105,0.096c0.035,0.037,0.074,0.066,0.109,0.103      s0.074,0.065,0.111,0.103c0.033,0.034,0.072,0.064,0.108,0.101c0.033,0.034,0.072,0.063,0.107,0.099      c0.034,0.036,0.073,0.064,0.108,0.1s0.074,0.066,0.109,0.102c0.035,0.036,0.074,0.066,0.109,0.102      c0.035,0.034,0.074,0.063,0.108,0.099c0.035,0.036,0.072,0.065,0.109,0.101c0.034,0.035,0.073,0.066,0.11,0.102      c0.033,0.035,0.072,0.064,0.107,0.1s0.072,0.063,0.107,0.1c0.035,0.036,0.074,0.066,0.111,0.103      c0.034,0.036,0.073,0.065,0.108,0.101c0.035,0.033,0.071,0.063,0.106,0.096c0.035,0.037,0.074,0.068,0.109,0.104      c0.035,0.036,0.074,0.064,0.111,0.104c0.033,0.033,0.072,0.063,0.107,0.098s0.073,0.066,0.108,0.1      c0.035,0.035,0.074,0.066,0.108,0.1c0.035,0.035,0.074,0.066,0.109,0.102c0.035,0.036,0.074,0.066,0.111,0.104      c0.035,0.035,0.072,0.063,0.107,0.098C53.621,74.6,54.496,75,55.467,75c1.914,0,3.467-1.552,3.467-3.467      C58.934,70.536,58.507,69.645,57.833,69.012z" fill="url(#SVGID_3_)"/><linearGradient gradientTransform="matrix(1 0 0 1 -548 -727)" gradientUnits="userSpaceOnUse" id="SVGID_4_" x1="624.6914" x2="567.1913" y1="803.3105" y2="745.8105"><stop offset="0.4847" style="stop-color:#000000;stop-opacity:0"/><stop offset="1" style="stop-color:#000000"/></linearGradient><path d="M78,75c0-7.652-3.307-14.529-8.566-19.288c-0.043-0.038-0.084-0.076-0.125-0.112      c-0.035-0.031-0.067-0.063-0.104-0.095c-0.035-0.032-0.07-0.063-0.105-0.096c-0.037-0.033-0.072-0.066-0.107-0.101      c-0.038-0.033-0.075-0.067-0.113-0.104c-0.036-0.033-0.072-0.064-0.107-0.102c-0.035-0.03-0.071-0.063-0.106-0.097      c-0.034-0.03-0.067-0.063-0.103-0.094c-0.043-0.039-0.086-0.077-0.127-0.116c-0.033-0.029-0.066-0.061-0.102-0.09      c-0.039-0.035-0.077-0.07-0.116-0.105c-0.03-0.027-0.063-0.059-0.097-0.088c-0.042-0.037-0.084-0.076-0.126-0.115      c-0.033-0.027-0.065-0.06-0.103-0.09c-0.035-0.033-0.072-0.064-0.107-0.1c-0.038-0.035-0.076-0.07-0.115-0.104      c-0.035-0.033-0.07-0.066-0.107-0.101c-0.035-0.03-0.068-0.063-0.104-0.096c-0.038-0.035-0.076-0.069-0.114-0.104      c-0.033-0.033-0.068-0.063-0.104-0.097c-0.037-0.034-0.074-0.067-0.111-0.103c-0.036-0.031-0.07-0.064-0.107-0.099      s-0.076-0.067-0.112-0.104c-0.032-0.029-0.063-0.061-0.099-0.09c-0.043-0.039-0.084-0.076-0.127-0.113      c-0.033-0.03-0.064-0.063-0.1-0.092c-0.04-0.037-0.081-0.072-0.122-0.109c-0.032-0.027-0.065-0.061-0.099-0.089      c-0.036-0.034-0.073-0.066-0.11-0.103c-0.036-0.033-0.071-0.064-0.108-0.1s-0.076-0.068-0.112-0.104      c-0.037-0.035-0.074-0.067-0.111-0.103c-0.034-0.03-0.067-0.063-0.104-0.095c-0.037-0.034-0.073-0.067-0.11-0.104      c-0.039-0.035-0.077-0.068-0.115-0.104c-0.034-0.031-0.067-0.063-0.104-0.094c-0.035-0.033-0.07-0.066-0.107-0.101      c-0.036-0.032-0.07-0.065-0.107-0.101c-0.039-0.035-0.08-0.071-0.119-0.108c-0.033-0.028-0.066-0.06-0.102-0.09      c-0.033-0.031-0.066-0.063-0.103-0.095c-0.041-0.036-0.082-0.074-0.123-0.111c-0.038-0.034-0.076-0.066-0.114-0.104      c-0.031-0.029-0.064-0.061-0.1-0.09c-0.033-0.031-0.068-0.063-0.104-0.096c-0.037-0.033-0.072-0.068-0.111-0.104      c-0.039-0.037-0.08-0.073-0.121-0.109c-0.032-0.031-0.066-0.063-0.102-0.092c-0.037-0.033-0.072-0.066-0.107-0.1      c-0.039-0.035-0.078-0.07-0.117-0.105c-0.035-0.031-0.071-0.064-0.106-0.098c-0.034-0.033-0.069-0.063-0.106-0.097      c-0.034-0.032-0.07-0.065-0.107-0.101c-0.039-0.036-0.079-0.071-0.119-0.108c-0.031-0.028-0.064-0.062-0.101-0.091      c-0.034-0.03-0.068-0.063-0.104-0.094c-0.039-0.036-0.078-0.072-0.117-0.106s-0.076-0.069-0.114-0.104      c-0.034-0.031-0.069-0.063-0.104-0.096c-0.031-0.029-0.064-0.063-0.101-0.093c-0.04-0.034-0.08-0.071-0.12-0.108      c-0.037-0.033-0.074-0.066-0.111-0.101c-0.033-0.032-0.068-0.063-0.104-0.096c-0.036-0.033-0.072-0.066-0.108-0.101      c-0.038-0.035-0.077-0.07-0.116-0.104c-0.035-0.032-0.072-0.064-0.106-0.1c-0.035-0.031-0.07-0.063-0.104-0.096      c-0.035-0.033-0.072-0.066-0.109-0.101c-0.035-0.032-0.071-0.065-0.108-0.101c-0.039-0.035-0.079-0.072-0.118-0.108      c-0.033-0.03-0.066-0.06-0.102-0.091c-0.037-0.033-0.074-0.066-0.111-0.103c-0.031-0.028-0.064-0.06-0.098-0.088      c-0.045-0.041-0.09-0.082-0.133-0.123c-0.033-0.026-0.064-0.058-0.098-0.086c-0.035-0.033-0.072-0.065-0.107-0.101      c-0.041-0.035-0.08-0.072-0.121-0.108c-0.031-0.026-0.063-0.058-0.094-0.086c-0.039-0.033-0.076-0.067-0.113-0.104      c-0.039-0.035-0.078-0.07-0.117-0.105c-0.036-0.032-0.072-0.063-0.107-0.098c-0.035-0.032-0.069-0.063-0.104-0.098      c-0.036-0.031-0.072-0.064-0.108-0.1c-0.037-0.035-0.074-0.068-0.113-0.104c-0.037-0.035-0.074-0.068-0.11-0.103      c-0.033-0.029-0.065-0.062-0.099-0.091c-0.039-0.035-0.078-0.071-0.117-0.106c-0.037-0.032-0.073-0.065-0.11-0.1      c-0.034-0.031-0.069-0.064-0.104-0.097c-0.039-0.035-0.077-0.07-0.116-0.106c-0.034-0.031-0.069-0.063-0.104-0.095      c-0.035-0.03-0.066-0.063-0.103-0.092c-0.043-0.039-0.084-0.078-0.127-0.117c-0.034-0.03-0.069-0.063-0.104-0.094      s-0.07-0.063-0.104-0.098c-0.039-0.033-0.075-0.066-0.113-0.104c-0.034-0.031-0.069-0.063-0.104-0.097      c-0.035-0.032-0.072-0.065-0.109-0.1c-0.036-0.035-0.074-0.068-0.111-0.104c-0.037-0.031-0.072-0.063-0.106-0.098      c-0.037-0.033-0.074-0.066-0.112-0.104c-0.035-0.031-0.068-0.063-0.104-0.097c-0.039-0.034-0.08-0.071-0.119-0.108      c-0.033-0.029-0.066-0.06-0.102-0.09c-0.037-0.033-0.072-0.065-0.109-0.101c-0.035-0.033-0.072-0.065-0.109-0.101      c-0.038-0.035-0.077-0.071-0.117-0.106c-0.033-0.031-0.066-0.062-0.102-0.092c-0.037-0.033-0.074-0.066-0.11-0.101      c-0.039-0.037-0.079-0.072-0.118-0.108c-0.031-0.027-0.063-0.056-0.094-0.084c-0.037-0.033-0.074-0.068-0.111-0.103      c-0.037-0.035-0.076-0.07-0.115-0.104c-0.037-0.033-0.073-0.068-0.11-0.103c-0.037-0.033-0.073-0.066-0.108-0.1      s-0.07-0.064-0.105-0.098c-0.039-0.037-0.078-0.072-0.119-0.107c-0.033-0.029-0.066-0.063-0.104-0.092      c-0.035-0.033-0.07-0.066-0.107-0.1c-0.035-0.033-0.071-0.066-0.107-0.101c-0.033-0.03-0.068-0.063-0.104-0.095      c-0.043-0.038-0.086-0.077-0.127-0.116c-0.035-0.031-0.07-0.063-0.104-0.095c-0.035-0.03-0.068-0.063-0.104-0.094      c-0.037-0.031-0.072-0.063-0.107-0.098c-0.039-0.036-0.078-0.07-0.117-0.107c-0.035-0.031-0.069-0.063-0.104-0.096      c-0.037-0.033-0.072-0.066-0.108-0.1c-0.039-0.035-0.076-0.07-0.115-0.104c-0.035-0.033-0.07-0.065-0.105-0.1      c-0.037-0.033-0.072-0.064-0.107-0.098c-0.037-0.034-0.072-0.066-0.106-0.1c-0.041-0.035-0.08-0.072-0.121-0.109      c-0.032-0.029-0.065-0.06-0.101-0.09c-0.037-0.033-0.071-0.064-0.108-0.101c-0.037-0.032-0.072-0.065-0.108-0.101      c-0.037-0.032-0.072-0.065-0.109-0.1c-0.039-0.035-0.078-0.072-0.119-0.109c-0.033-0.028-0.064-0.061-0.1-0.09      c-0.039-0.035-0.076-0.067-0.113-0.104s-0.074-0.066-0.111-0.102c-0.033-0.031-0.068-0.063-0.104-0.096      c-0.032-0.031-0.067-0.063-0.104-0.095c-0.039-0.035-0.078-0.071-0.117-0.106c-0.037-0.035-0.076-0.068-0.113-0.103      c-0.034-0.035-0.071-0.065-0.108-0.101c-0.033-0.03-0.063-0.061-0.099-0.09c-0.041-0.037-0.082-0.074-0.123-0.111      c-0.034-0.032-0.071-0.063-0.106-0.098c-0.032-0.031-0.065-0.063-0.101-0.094c-0.041-0.035-0.079-0.07-0.118-0.107      c-0.035-0.03-0.072-0.063-0.106-0.096c-0.039-0.035-0.078-0.07-0.117-0.105c-0.031-0.028-0.063-0.06-0.097-0.088      c-0.041-0.037-0.082-0.073-0.12-0.11c-0.033-0.029-0.066-0.062-0.103-0.09c-0.037-0.035-0.074-0.068-0.111-0.104      c-0.036-0.033-0.071-0.066-0.108-0.1c-0.039-0.035-0.075-0.069-0.113-0.104c-0.033-0.031-0.068-0.063-0.104-0.096      c-0.039-0.035-0.078-0.07-0.119-0.105c-0.037-0.035-0.074-0.067-0.111-0.104c-0.033-0.029-0.066-0.063-0.102-0.092      c-0.035-0.03-0.068-0.063-0.104-0.096c-0.039-0.035-0.08-0.072-0.121-0.107c-0.035-0.034-0.072-0.066-0.108-0.102      c-0.035-0.031-0.072-0.064-0.105-0.098c-0.035-0.031-0.068-0.063-0.104-0.095c-0.041-0.034-0.08-0.07-0.119-0.106      c-0.037-0.033-0.076-0.066-0.111-0.103c-0.035-0.031-0.07-0.063-0.104-0.095c-0.037-0.032-0.072-0.064-0.109-0.1      c-0.034-0.033-0.071-0.064-0.108-0.1c-0.032-0.031-0.067-0.063-0.104-0.096c-0.039-0.037-0.08-0.074-0.121-0.109      c-0.034-0.032-0.069-0.064-0.104-0.098c-0.032-0.029-0.065-0.062-0.102-0.092c-0.041-0.037-0.083-0.076-0.124-0.111      c-0.034-0.033-0.071-0.064-0.106-0.098c-0.034-0.035-0.071-0.066-0.108-0.101c-0.029-0.028-0.063-0.058-0.094-0.086      c-0.043-0.039-0.086-0.078-0.13-0.117c-0.032-0.03-0.065-0.062-0.1-0.092c-0.039-0.034-0.078-0.069-0.117-0.104      c-0.033-0.029-0.065-0.062-0.101-0.091c-0.039-0.034-0.077-0.069-0.114-0.104c-0.037-0.033-0.074-0.065-0.108-0.1      c-0.037-0.033-0.072-0.064-0.107-0.099c-0.035-0.032-0.07-0.063-0.105-0.099c-0.039-0.034-0.074-0.067-0.113-0.104      s-0.078-0.07-0.117-0.107c-0.034-0.028-0.067-0.061-0.104-0.09c-0.035-0.033-0.07-0.065-0.105-0.1      c-0.037-0.033-0.073-0.066-0.11-0.1c-0.037-0.035-0.074-0.07-0.11-0.104c-0.037-0.032-0.074-0.065-0.111-0.101      c-0.031-0.029-0.064-0.062-0.1-0.092c-0.041-0.037-0.085-0.074-0.125-0.113c-0.033-0.029-0.066-0.062-0.101-0.09      c-0.039-0.035-0.076-0.068-0.113-0.104c-0.036-0.034-0.075-0.067-0.112-0.104c-0.033-0.03-0.066-0.062-0.103-0.092      c-0.037-0.033-0.076-0.067-0.112-0.104c-0.037-0.032-0.072-0.064-0.107-0.098c-0.037-0.033-0.074-0.068-0.111-0.103      c-0.035-0.032-0.072-0.065-0.107-0.101c-0.039-0.034-0.076-0.068-0.115-0.104c-0.035-0.031-0.071-0.063-0.106-0.097      c-0.034-0.034-0.069-0.063-0.104-0.097c-0.034-0.032-0.068-0.063-0.104-0.098c-0.041-0.035-0.08-0.072-0.121-0.109      c-0.033-0.03-0.07-0.063-0.105-0.097c-0.033-0.03-0.067-0.062-0.104-0.093c-0.039-0.037-0.08-0.073-0.121-0.109      c-0.033-0.033-0.07-0.063-0.105-0.098c-0.038-0.035-0.075-0.068-0.114-0.104c-0.028-0.029-0.062-0.059-0.093-0.084      c-0.039-0.037-0.079-0.074-0.118-0.109c-0.035-0.032-0.069-0.064-0.104-0.098c-0.037-0.033-0.074-0.065-0.11-0.102      c-0.038-0.033-0.075-0.066-0.112-0.104c-0.035-0.032-0.07-0.063-0.105-0.098c-0.039-0.035-0.078-0.07-0.117-0.106      c-0.036-0.031-0.071-0.064-0.108-0.099c-0.032-0.031-0.065-0.062-0.102-0.092c-0.036-0.033-0.072-0.066-0.109-0.102      c-0.039-0.035-0.08-0.071-0.118-0.107c-0.033-0.031-0.068-0.063-0.104-0.093c-0.037-0.033-0.073-0.065-0.108-0.101      c-0.036-0.033-0.073-0.066-0.11-0.102c-0.039-0.036-0.078-0.07-0.119-0.105c-0.033-0.031-0.066-0.063-0.103-0.094      c-0.036-0.032-0.071-0.065-0.106-0.099s-0.071-0.065-0.105-0.098c-0.041-0.037-0.082-0.073-0.123-0.11      c-0.033-0.03-0.064-0.061-0.1-0.091c-0.037-0.033-0.074-0.067-0.109-0.101c-0.037-0.033-0.074-0.066-0.109-0.101      c-0.039-0.034-0.076-0.068-0.113-0.103c-0.036-0.032-0.071-0.064-0.105-0.097c-0.035-0.033-0.072-0.065-0.107-0.099      c-0.037-0.033-0.074-0.067-0.111-0.101c-0.035-0.032-0.068-0.063-0.104-0.096c-0.037-0.034-0.075-0.068-0.112-0.103      c-0.04-0.036-0.08-0.072-0.12-0.108c-0.033-0.03-0.066-0.061-0.1-0.091c-0.037-0.033-0.073-0.066-0.11-0.101      c-0.038-0.034-0.075-0.068-0.112-0.103c-0.035-0.031-0.068-0.063-0.104-0.094c-0.038-0.035-0.075-0.069-0.112-0.104      c-0.037-0.034-0.075-0.068-0.112-0.103c-0.035-0.032-0.072-0.065-0.107-0.098c-0.036-0.033-0.072-0.066-0.109-0.099      c-0.035-0.033-0.072-0.066-0.107-0.099c-0.034-0.032-0.07-0.064-0.105-0.097c-0.038-0.035-0.074-0.07-0.113-0.104      c-0.037-0.034-0.074-0.067-0.111-0.101c-0.034-0.031-0.068-0.063-0.104-0.094c-0.034-0.032-0.067-0.063-0.104-0.095      c-0.041-0.038-0.084-0.077-0.125-0.115c-0.035-0.032-0.071-0.064-0.106-0.096c-0.032-0.03-0.063-0.059-0.097-0.088      c-0.039-0.035-0.077-0.071-0.116-0.106c-0.038-0.035-0.077-0.07-0.114-0.104c-0.037-0.033-0.072-0.066-0.107-0.099      c-0.034-0.031-0.068-0.062-0.104-0.093c-0.037-0.034-0.074-0.068-0.111-0.102c-0.041-0.037-0.08-0.073-0.119-0.109      c-0.032-0.029-0.064-0.058-0.098-0.087c-0.037-0.035-0.076-0.07-0.113-0.104c-0.036-0.033-0.072-0.066-0.108-0.1      c-0.037-0.034-0.074-0.068-0.11-0.102c-0.039-0.035-0.078-0.07-0.115-0.105c-0.033-0.03-0.065-0.06-0.101-0.089      c-0.034-0.033-0.071-0.066-0.106-0.099c-0.039-0.036-0.079-0.072-0.118-0.108c-0.038-0.034-0.076-0.068-0.113-0.102      c-0.03-0.028-0.062-0.056-0.093-0.084c-0.041-0.038-0.082-0.075-0.123-0.112c-0.036-0.033-0.072-0.065-0.107-0.098      c-0.037-0.033-0.072-0.066-0.107-0.099c-0.035-0.032-0.069-0.063-0.104-0.095c-0.038-0.036-0.077-0.071-0.116-0.106      c-0.035-0.033-0.072-0.066-0.108-0.1c-0.035-0.032-0.07-0.063-0.104-0.095c-0.035-0.033-0.072-0.065-0.105-0.098      c-0.038-0.035-0.077-0.07-0.115-0.104c-0.038-0.035-0.077-0.07-0.113-0.105c-0.035-0.031-0.068-0.061-0.104-0.092      c-0.033-0.031-0.067-0.062-0.102-0.092c-0.043-0.039-0.086-0.078-0.129-0.116c-0.033-0.031-0.066-0.061-0.101-0.092      c-0.036-0.033-0.072-0.066-0.108-0.099c-0.039-0.035-0.076-0.07-0.115-0.104c-0.035-0.032-0.069-0.064-0.104-0.096      c-0.036-0.034-0.073-0.067-0.108-0.1c-0.035-0.033-0.072-0.065-0.107-0.098c-0.038-0.035-0.076-0.069-0.115-0.104      c-0.034-0.032-0.068-0.064-0.104-0.096c-0.037-0.033-0.073-0.066-0.109-0.099C31.913,21.58,25.758,19,19,19v4.333      c0.037,0,0.073,0.002,0.11,0.003v0.097c0.037,0,0.073,0.002,0.109,0.003v0.097c0.037,0,0.073,0.002,0.11,0.003v0.096      c0.037,0,0.073,0.002,0.11,0.003v0.097c0.037,0,0.072,0.002,0.109,0.003v0.097c0.037,0,0.073,0.002,0.11,0.003v0.097      c0.037,0,0.073,0.002,0.11,0.003v0.097c0.037,0,0.073,0.002,0.109,0.003v0.096c0.037,0,0.073,0.002,0.11,0.003v0.097      c0.037,0,0.073,0.002,0.11,0.003v0.097c0.037,0,0.073,0.002,0.109,0.003v0.096c0.037,0,0.073,0.002,0.11,0.003v0.097      c0.037,0,0.073,0.002,0.109,0.003v0.096c0.037,0,0.073,0.002,0.109,0.003v0.097c0.037,0,0.073,0.002,0.11,0.003v0.097      c0.037,0,0.073,0.002,0.109,0.003v0.096c0.037,0,0.073,0.002,0.11,0.003v0.097c0.037,0,0.073,0.002,0.11,0.003v0.097      c0.037,0,0.073,0.002,0.11,0.003v0.096c0.037,0,0.073,0.002,0.109,0.003v0.097c0.037,0,0.073,0.002,0.109,0.003v0.096      c0.037,0,0.073,0.002,0.11,0.003v0.097c0.037,0,0.073,0.002,0.109,0.003v0.097c0.037,0,0.073,0.002,0.109,0.003v0.096      c0.037,0,0.073,0.002,0.11,0.003v0.097c0.037,0,0.073,0.002,0.11,0.003v0.097c0.037,0,0.073,0.002,0.11,0.003v0.097      c0.037,0,0.073,0.002,0.109,0.003v0.097c0.037,0,0.073,0.002,0.109,0.003v0.096c0.037,0,0.073,0.002,0.11,0.003v0.097      c0.037,0,0.073,0.002,0.109,0.003v0.097c0.037,0,0.073,0.002,0.109,0.003v0.096c0.037,0,0.073,0.002,0.11,0.003v0.097      c0.037,0,0.073,0.002,0.109,0.003v0.097c0.037,0,0.073,0.002,0.11,0.003v0.097c0.037,0,0.073,0.002,0.11,0.003v0.097      c0.037,0,0.072,0.002,0.109,0.003v0.096c0.037,0,0.073,0.002,0.11,0.003v0.097c0.037,0,0.073,0.002,0.11,0.003v0.097      c0.037,0,0.072,0.002,0.109,0.003v0.096c0.037,0,0.073,0.002,0.11,0.003v0.097c0.037,0,0.073,0.002,0.11,0.003v0.097      c0.037,0,0.073,0.002,0.109,0.003v0.097c0.037,0,0.073,0.002,0.11,0.003v0.096c0.037,0,0.073,0.002,0.109,0.003v0.097      c0.037,0,0.073,0.002,0.109,0.003v0.097c0.037,0,0.073,0.002,0.11,0.003v0.097c0.037,0,0.073,0.002,0.11,0.003v0.097      c0.037,0,0.073,0.002,0.109,0.003v0.096c0.037,0,0.073,0.002,0.11,0.003v0.097c0.037,0,0.073,0.002,0.11,0.003v0.097      c0.037,0,0.073,0.002,0.109,0.003v0.097c0.037,0,0.073,0.002,0.109,0.003v0.096c0.037,0,0.073,0.002,0.11,0.003v0.097      c0.037,0,0.073,0.002,0.109,0.003v0.048c-1.88-0.699-3.906-1.1-6.03-1.1V32c0.037,0,0.073,0.005,0.11,0.006V32.1      c0.037,0,0.073,0.005,0.109,0.006V32.2c0.037,0,0.073,0.005,0.11,0.006V32.3c0.037,0,0.073,0.005,0.11,0.006V32.4      c0.037,0,0.072,0.005,0.109,0.006V32.5c0.037,0,0.073,0.005,0.11,0.006v0.096c0.037,0,0.073,0.004,0.11,0.006v0.095      c0.037,0,0.072,0.005,0.109,0.006V32.8c0.037,0,0.073,0.005,0.11,0.007V32.9c0.037,0,0.073,0.004,0.11,0.006v0.095      c0.037,0,0.072,0.005,0.109,0.006v0.095c0.037,0,0.073,0.004,0.11,0.006v0.095c0.037,0,0.073,0.005,0.109,0.006v0.094      c0.037,0,0.073,0.007,0.109,0.007V33.4c0.037,0,0.073,0.006,0.11,0.007v0.094c0.037,0,0.072,0.005,0.109,0.006v0.095      c0.037,0,0.073,0.004,0.11,0.006v0.095c0.037,0,0.073,0.005,0.11,0.006v0.094c0.037,0,0.073,0.007,0.11,0.007V33.9      c0.037,0,0.073,0.006,0.109,0.007v0.095c0.037,0,0.073,0.005,0.109,0.006v0.094c0.037,0,0.073,0.004,0.11,0.006v0.095      c0.037,0,0.072,0.005,0.109,0.006v0.094c0.037,0,0.072,0.007,0.109,0.007V34.4c0.037,0,0.073,0.006,0.11,0.007v0.095      c0.037,0,0.073,0.005,0.11,0.006v0.094c0.037,0,0.073,0.006,0.11,0.006v0.096c0.037,0,0.073,0.005,0.109,0.006v0.096      c0.037,0,0.073,0.004,0.109,0.006v0.094c0.037,0,0.073,0.005,0.11,0.006v0.094c0.037,0,0.072,0.005,0.109,0.006v0.094      c0.037,0,0.072,0.006,0.109,0.006v0.096c0.037,0,0.073,0.005,0.11,0.006v0.096c0.037,0,0.072,0.004,0.109,0.006v0.094      c0.037,0,0.073,0.005,0.11,0.006v0.094c0.037,0,0.073,0.006,0.11,0.006v0.096c0.037,0,0.072,0.004,0.109,0.007v0.093      c0.037,0,0.073,0.005,0.11,0.006v0.096c0.037,0,0.073,0.004,0.11,0.006v0.094c0.037,0,0.072,0.005,0.109,0.006v0.094      c0.037,0,0.073,0.006,0.11,0.006v0.096c0.037,0,0.073,0.005,0.11,0.007v0.093c0.037,0,0.073,0.005,0.109,0.006v0.096      c0.037,0,0.073,0.006,0.11,0.006v0.095c0.037,0,0.072,0.005,0.109,0.006v0.095c0.037,0,0.072,0.004,0.109,0.006v0.094      c0.037,0,0.073,0.005,0.11,0.007v0.094c0.037,0,0.073,0.005,0.11,0.007v0.094c0.037,0,0.072,0.006,0.109,0.006v0.095      c0.037,0,0.073,0.005,0.11,0.006v0.095c0.037,0,0.073,0.004,0.11,0.006v0.095c0.037,0,0.072,0.004,0.109,0.006v0.094      c0.037,0,0.072,0.005,0.109,0.007v0.094c0.037,0,0.073,0.006,0.11,0.006v0.095c0.037,0,0.073,0.005,0.109,0.006v0.095      c0.037,0,0.073,0.006,0.11,0.006v0.095c0.037,0,0.072,0.004,0.109,0.006v0.094c0.037,0,0.073,0.005,0.11,0.007v0.096      c0.037,0,0.073,0.004,0.11,0.006v0.094c0.037,0,0.073,0.005,0.11,0.006v0.094c0.037,0,0.072,0.006,0.109,0.006v0.095      c0.037,0,0.073,0.004,0.11,0.006v0.095c0.037,0,0.073,0.006,0.109,0.006v0.096c0.037,0,0.073,0.004,0.11,0.006v0.094      c0.037,0,0.072,0.006,0.109,0.006v0.094c0.037,0,0.073,0.006,0.11,0.006v0.095c0.037,0,0.073,0.006,0.11,0.007v0.094      c0.037,0,0.073,0.006,0.11,0.006v0.096c0.037,0,0.072,0.004,0.109,0.006v0.094c0.037,0,0.073,0.006,0.11,0.006v0.094      c0.037,0,0.073,0.007,0.11,0.007v0.094c0.037,0,0.072,0.006,0.109,0.007v0.094c0.037,0,0.072,0.006,0.109,0.006v0.096      c0.037,0,0.073,0.004,0.11,0.006v0.096c0.037,0,0.072,0.004,0.109,0.006v0.094c0.037,0,0.073,0.005,0.11,0.007v0.094      c0.037,0,0.073,0.005,0.11,0.007v0.092c0.037,0,0.072,0.006,0.108,0.006v0.096c0.037,0,0.073,0.004,0.11,0.006v0.096      c0.037,0,0.073,0.004,0.11,0.006v0.095c0.037,0,0.072,0.004,0.109,0.006v0.094c0.037,0,0.073,0.005,0.109,0.007v0.094      c0.037,0,0.073,0.004,0.11,0.006v0.094c0.037,0,0.073,0.006,0.11,0.006v0.096c0.037,0,0.073,0.006,0.11,0.006v0.095      c0.037,0,0.072,0.004,0.109,0.006v0.094c0.037,0,0.072,0.005,0.109,0.007v0.094c0.037,0,0.073,0.005,0.11,0.006v0.096      c0.037,0,0.072,0.004,0.109,0.006v0.094c0.037,0,0.072,0.006,0.109,0.006v0.095c0.037,0,0.073,0.004,0.11,0.006v0.095      c0.037,0,0.073,0.004,0.11,0.006v0.094c0.037,0,0.072,0.006,0.109,0.007v0.095c0.037,0,0.072,0.004,0.109,0.006v0.094      c0.037,0,0.073,0.006,0.11,0.006v0.095c0.037,0,0.073,0.006,0.11,0.006v0.095c0.037,0,0.072,0.006,0.109,0.006v0.095      c0.037,0,0.072,0.005,0.109,0.007v0.094c0.037,0,0.072,0.004,0.109,0.006v0.094c0.037,0,0.073,0.006,0.11,0.007v0.094      c0.037,0,0.072,0.006,0.109,0.006v0.095c0.037,0,0.072,0.006,0.109,0.006v0.095c0.037,0,0.073,0.005,0.11,0.007v0.094      c0.037,0,0.073,0.004,0.11,0.006v0.096c0.037,0,0.072,0.005,0.109,0.006v0.093c0.037,0,0.072,0.006,0.109,0.006v0.095      c0.037,0,0.072,0.006,0.109,0.006v0.095c0.037,0,0.073,0.005,0.11,0.007v0.094c0.037,0,0.072,0.006,0.109,0.006v0.096      c0.037,0,0.072,0.005,0.109,0.006v0.093c0.037,0,0.073,0.006,0.11,0.006v0.097c0.037,0,0.073,0.004,0.11,0.006v0.094      c0.037,0,0.072,0.006,0.109,0.006v0.094c0.037,0,0.072,0.006,0.109,0.006v0.096c0.037,0,0.073,0.005,0.11,0.006v0.095      c0.037,0,0.072,0.005,0.109,0.007v0.094c0.037,0,0.072,0.005,0.109,0.006v0.094c0.036,0,0.07,0.006,0.105,0.006      c0.002,0.024,0.002,0.051,0.004,0.076v0.018c0,0,0,0,0.001,0C31.976,44.169,32,44.582,32,45h0.104      c0,0.033,0.005,0.066,0.005,0.1h0.105c0,0.033,0.005,0.066,0.005,0.102h0.105c0,0.031,0.005,0.064,0.005,0.1h0.105      c0,0.033,0.005,0.066,0.005,0.102h0.104c0,0.033,0.005,0.064,0.005,0.1h0.104c0,0.033,0.006,0.066,0.006,0.1h0.104      c0,0.033,0.006,0.066,0.006,0.102h0.104c0,0.031,0.005,0.064,0.005,0.1h0.104c0,0.033,0.004,0.066,0.004,0.102h0.105      c0,0.033,0.004,0.064,0.004,0.1h0.105c0,0.034,0.005,0.066,0.005,0.102h0.104c0,0.033,0.004,0.065,0.004,0.101h0.104      c0,0.033,0.006,0.063,0.006,0.099h0.104c0,0.034,0.006,0.066,0.006,0.102h0.104c0,0.033,0.004,0.066,0.004,0.101h0.104      c0,0.033,0.005,0.065,0.005,0.101h0.105c0,0.033,0.004,0.065,0.004,0.101h0.104c0,0.033,0.005,0.065,0.005,0.101h0.104      c0,0.032,0.005,0.065,0.005,0.1h0.104c0,0.035,0.004,0.066,0.004,0.102h0.104c0,0.033,0.005,0.064,0.005,0.1h0.105      c0,0.033,0.004,0.065,0.004,0.101h0.104c0,0.033,0.005,0.065,0.005,0.101h0.104c0,0.033,0.005,0.065,0.005,0.1h0.104      c0,0.035,0.006,0.066,0.006,0.102h0.104c0,0.033,0.005,0.066,0.005,0.1h0.104c0,0.033,0.006,0.066,0.006,0.102h0.104      c0,0.032,0.004,0.064,0.004,0.1h0.104c0,0.033,0.005,0.066,0.005,0.102h0.104c0,0.033,0.006,0.064,0.006,0.1h0.104      c0,0.033,0.007,0.066,0.007,0.1h0.104c0,0.033,0.005,0.066,0.005,0.102H35.6c0,0.032,0.006,0.064,0.006,0.1h0.104      c0,0.033,0.006,0.066,0.006,0.102h0.104c0,0.033,0.006,0.064,0.006,0.1h0.104c0,0.033,0.006,0.066,0.006,0.101h0.104      c0,0.032,0.005,0.065,0.005,0.101h0.104c0,0.032,0.006,0.065,0.006,0.1h0.104c0,0.033,0.006,0.066,0.006,0.102h0.104      c0,0.033,0.005,0.064,0.005,0.1h0.104c0,0.033,0.004,0.066,0.004,0.101H36.6c0,0.032,0.006,0.065,0.006,0.101h0.104      c0,0.034,0.005,0.065,0.005,0.102h0.104c0,0.033,0.007,0.065,0.007,0.1h0.104c0,0.033,0.006,0.064,0.006,0.1h0.104      c0,0.035,0.005,0.066,0.005,0.103h0.104c0,0.032,0.006,0.065,0.006,0.101h0.104c0,0.032,0.006,0.063,0.006,0.098h0.104      c0,0.035,0.005,0.066,0.005,0.102h0.104c0,0.033,0.004,0.066,0.004,0.102h0.105c0,0.033,0.005,0.064,0.005,0.101h0.104      c0,0.033,0.005,0.065,0.005,0.101h0.104c0,0.032,0.004,0.065,0.004,0.1h0.104c0,0.033,0.005,0.066,0.005,0.1h0.105      c0,0.035,0.004,0.066,0.004,0.102h0.104c0,0.033,0.006,0.064,0.006,0.101h0.104c0,0.032,0.005,0.065,0.005,0.101h0.104      c0,0.032,0.004,0.065,0.004,0.101h0.104c0,0.032,0.005,0.065,0.005,0.101h0.104c0,0.033,0.007,0.065,0.007,0.1h0.104      c0,0.033,0.006,0.066,0.006,0.101h0.104c0,0.033,0.005,0.065,0.005,0.101h0.104c0,0.032,0.006,0.065,0.006,0.101h0.104      c0,0.032,0.006,0.065,0.006,0.101h0.104c0,0.033,0.005,0.065,0.005,0.1h0.104c0,0.033,0.006,0.066,0.006,0.101h0.104      c0,0.033,0.005,0.065,0.005,0.101h0.104c0,0.033,0.004,0.065,0.004,0.101h0.104c0,0.032,0.006,0.065,0.006,0.101h0.104      c0,0.033,0.005,0.065,0.005,0.101h0.104c0,0.032,0.004,0.065,0.004,0.1h0.104c0,0.033,0.005,0.066,0.005,0.101h0.104      c0,0.033,0.007,0.065,0.007,0.101h0.104c0,0.033,0.004,0.065,0.004,0.101h0.104c0,0.033,0.005,0.065,0.005,0.102h0.105      c0,0.033,0.004,0.064,0.004,0.101h0.104c0,0.032,0.006,0.064,0.006,0.099h0.104c0,0.035,0.005,0.065,0.005,0.102h0.104      c0,0.033,0.004,0.066,0.004,0.1h0.104c0,0.033,0.005,0.066,0.005,0.102h0.105c0,0.033,0.005,0.064,0.005,0.102h0.104      c0,0.031,0.004,0.064,0.004,0.1h0.104c0,0.033,0.005,0.066,0.005,0.1h0.104c0,0.034,0.006,0.066,0.006,0.102H41.3      c0,0.033,0.005,0.064,0.005,0.1h0.104c0,0.033,0.005,0.064,0.005,0.102h0.104c0,0.032,0.006,0.064,0.006,0.101h0.104      c0,0.032,0.005,0.065,0.005,0.1h0.104c0,0.033,0.007,0.065,0.007,0.099h0.104c0,0.033,0.006,0.066,0.006,0.102h0.104      c0,0.034,0.005,0.064,0.005,0.102h0.104c0,0.032,0.006,0.065,0.006,0.101h0.104c0,0.032,0.006,0.065,0.006,0.1h0.12      c0,0.033,0.005,0.065,0.005,0.099h0.106c0,0.035,0.005,0.066,0.005,0.103h0.104c0,0.033,0.006,0.065,0.006,0.101h0.104      c0,0.032,0.005,0.065,0.005,0.101h0.104c0,0.032,0.005,0.065,0.005,0.101h0.104c0,0.032,0.004,0.065,0.004,0.1h0.105      c0,0.033,0.005,0.065,0.005,0.101h0.104c0,0.033,0.004,0.065,0.004,0.101h0.104c0,0.033,0.006,0.065,0.006,0.101h0.104      c0,0.032,0.005,0.065,0.005,0.101h0.104c0,0.033,0.004,0.065,0.004,0.101h0.104c0,0.032,0.005,0.065,0.005,0.1h0.104      c0,0.033,0.007,0.066,0.007,0.101h0.104c0,0.033,0.006,0.065,0.006,0.102h0.104c0,0.033,0.005,0.066,0.005,0.1h0.104      c0,0.033,0.006,0.065,0.006,0.101h0.104c0,0.032,0.006,0.065,0.006,0.1h0.104c0,0.034,0.005,0.066,0.005,0.103h0.104      c0,0.031,0.006,0.064,0.006,0.1h0.104c0,0.033,0.005,0.066,0.005,0.1h0.104c0,0.033,0.005,0.066,0.005,0.101h0.104      c0,0.032,0.006,0.065,0.006,0.101h0.104c0,0.034,0.005,0.065,0.005,0.102h0.104c0,0.033,0.004,0.064,0.004,0.1h0.104      c0,0.033,0.005,0.066,0.005,0.1h0.105c0,0.033,0.005,0.066,0.005,0.101h0.104c0,0.034,0.004,0.065,0.004,0.103h0.104      c0,0.032,0.005,0.063,0.005,0.1h0.104c0,0.031,0.006,0.064,0.006,0.1h0.104c0,0.033,0.006,0.066,0.006,0.102h0.105      c0,0.033,0.005,0.065,0.005,0.101H45.7c0,0.033,0.005,0.065,0.005,0.101h0.104c0,0.032,0.006,0.063,0.006,0.1h0.104      c0,0.033,0.005,0.064,0.005,0.101h0.104c0,0.032,0.007,0.065,0.007,0.101h0.104c0,0.033,0.006,0.065,0.006,0.101h0.104      c0,0.033,0.005,0.063,0.005,0.099h0.104c0,0.034,0.006,0.065,0.006,0.102h0.104c0,0.033,0.006,0.066,0.006,0.101h0.104      c0,0.032,0.005,0.065,0.005,0.101h0.104c0,0.033,0.006,0.065,0.006,0.101h0.104c0,0.033,0.005,0.065,0.005,0.101h0.104      c0,0.033,0.006,0.065,0.006,0.1h0.104c0,0.033,0.004,0.066,0.004,0.102h0.104c0,0.031,0.005,0.064,0.005,0.1h0.105      c0,0.033,0.004,0.066,0.004,0.101h0.104c0,0.033,0.007,0.065,0.007,0.101h0.104c0,0.033,0.005,0.065,0.005,0.1h0.104      c0,0.033,0.004,0.066,0.004,0.102h0.104c0,0.033,0.005,0.064,0.005,0.101h0.104c0,0.032,0.006,0.065,0.006,0.1h0.104      c0,0.033,0.004,0.066,0.004,0.101h0.104c0,0.033,0.005,0.065,0.005,0.1h0.105c0,0.035,0.004,0.066,0.004,0.102h0.104      c0,0.033,0.007,0.066,0.007,0.103h0.104c0,0.032,0.005,0.063,0.005,0.098h0.104c0,0.033,0.004,0.065,0.004,0.101h0.104      c0,0.033,0.005,0.065,0.005,0.102h0.104c0,0.033,0.006,0.064,0.006,0.1h0.104c0,0.033,0.004,0.066,0.004,0.101h0.104      c0,0.032,0.005,0.065,0.005,0.101h0.105c0,0.034,0.004,0.065,0.004,0.102h0.104c0,0.033,0.005,0.063,0.005,0.1h0.104      c0,0.033,0.005,0.064,0.005,0.1h0.104c0,0.033,0.006,0.066,0.006,0.103h0.104c0,0.032,0.005,0.065,0.005,0.101h0.104      c0,0.032,0.004,0.065,0.004,0.1h0.104c0,0.033,0.007,0.066,0.007,0.1h0.104c0,0.033,0.005,0.066,0.005,0.102h0.104      c0,0.031,0.004,0.064,0.004,0.101h0.104c0,0.032,0.006,0.065,0.006,0.101h0.104c0,0.032,0.005,0.065,0.005,0.1h0.104      c0,0.033,0.004,0.066,0.004,0.1h0.104c0,0.033,0.005,0.066,0.005,0.102H50.4c0,0.031,0.004,0.064,0.004,0.101h0.104      c0,0.032,0.005,0.065,0.005,0.101h0.104c0,0.032,0.005,0.065,0.005,0.1h0.104c0,0.033,0.004,0.066,0.004,0.1h0.104      c0,0.033,0.005,0.066,0.005,0.102h0.104c0,0.031,0.006,0.064,0.006,0.101h0.104c0,0.032,0.006,0.065,0.006,0.101h0.104      c0,0.033,0.005,0.065,0.005,0.1h0.104c0,0.033,0.006,0.066,0.006,0.1H51.4c0,0.035,0.004,0.066,0.004,0.103h0.104      c0,0.032,0.006,0.065,0.006,0.1h0.104c0,0.033,0.005,0.065,0.005,0.101h0.104c0,0.033,0.004,0.065,0.004,0.101h0.104      c0,0.033,0.005,0.065,0.005,0.101h0.104c0,0.033,0.007,0.065,0.007,0.101h0.104c0,0.032,0.004,0.065,0.004,0.1h0.104      c0,0.033,0.005,0.066,0.005,0.101h0.104c0,0.033,0.006,0.065,0.006,0.101h0.104c0,0.033,0.005,0.065,0.005,0.101h0.104      c0,0.033,0.005,0.065,0.005,0.102H52.6c0,0.031,0.006,0.064,0.006,0.099h0.104c0,0.033,0.005,0.066,0.005,0.101h0.104      c0,0.035,0.006,0.065,0.006,0.102h0.104c0,0.033,0.006,0.066,0.006,0.1h0.104c0,0.033,0.005,0.065,0.005,0.101h0.104      c0,0.032,0.006,0.065,0.006,0.103h0.104c0,0.031,0.007,0.064,0.007,0.1h0.104c0,0.033,0.005,0.066,0.005,0.1h0.104      c0,0.033,0.004,0.066,0.004,0.1h0.104c0,0.033,0.005,0.066,0.005,0.102h0.104c0,0.031,0.006,0.064,0.006,0.102h0.104      c0,0.031,0.004,0.064,0.004,0.1h0.104c0,0.033,0.005,0.066,0.005,0.1h0.105c0,0.033,0.004,0.066,0.004,0.1h0.104      c0,0.033,0.005,0.066,0.005,0.102h0.104c0,0.032,0.005,0.064,0.005,0.102h0.104c0,0.031,0.006,0.064,0.006,0.1h0.104      c0,0.033,0.005,0.066,0.005,0.1h0.104c0,0.033,0.006,0.066,0.006,0.1h0.104c0,0.033,0.006,0.066,0.006,0.102H54.8      c0,0.032,0.005,0.064,0.005,0.102h0.104c0,0.032,0.005,0.064,0.005,0.1h0.104c0,0.033,0.006,0.066,0.006,0.1h0.104      c0,0.033,0.005,0.066,0.005,0.1h0.104c0,0.035,0.006,0.066,0.006,0.103h0.104c0,0.033,0.004,0.065,0.004,0.101h0.105      c0,0.033,0.005,0.064,0.005,0.1h0.104c0,0.033,0.004,0.066,0.004,0.102h0.104c0,0.032,0.005,0.064,0.005,0.101h0.105      c0,0.032,0.005,0.065,0.005,0.1h0.104c0,0.033,0.004,0.065,0.004,0.101h0.104c0,0.033,0.005,0.065,0.005,0.1h0.105      c0,0.033,0.005,0.066,0.005,0.102h0.104c0,0.032,0.005,0.064,0.005,0.101h0.104c0,0.032,0.005,0.065,0.005,0.101h0.104      c0,0.032,0.004,0.065,0.004,0.1h0.104c0,0.033,0.005,0.065,0.005,0.1h0.104c0,0.035,0.006,0.066,0.006,0.102h0.104      c0,0.033,0.006,0.066,0.006,0.101h0.104c0,0.032,0.005,0.065,0.005,0.101h0.104c0,0.032,0.006,0.065,0.006,0.102h0.104      c0,0.031,0.006,0.064,0.006,0.1H57.2c0,0.033,0.005,0.066,0.005,0.1h0.104c0,0.033,0.004,0.066,0.004,0.101h0.105      c0,0.032,0.006,0.065,0.006,0.101h0.104c0,0.032,0.006,0.065,0.006,0.102h0.104c0,0.031,0.004,0.064,0.004,0.1h0.105      c0,0.033,0.005,0.066,0.005,0.1h0.104c0,0.033,0.004,0.066,0.004,0.101h0.104c0,0.032,0.005,0.065,0.005,0.101h0.104      c0,0.032,0.005,0.065,0.005,0.102h0.104c0,0.031,0.004,0.064,0.004,0.1h0.104c0,0.033,0.005,0.066,0.005,0.1h0.104      c0,0.033,0.006,0.066,0.006,0.101h0.104c0,0.032,0.006,0.065,0.006,0.101h0.104c0,0.034,0.005,0.065,0.005,0.102h0.104      c0,0.033,0.006,0.066,0.006,0.1h0.104c0,0.033,0.007,0.066,0.007,0.102h0.104c0,0.033,0.005,0.064,0.005,0.101h0.104      c0,0.033,0.006,0.065,0.006,0.101h0.104c0,0.032,0.005,0.065,0.005,0.1h0.104c0,0.033,0.005,0.066,0.005,0.1h0.104      c0,0.033,0.004,0.066,0.004,0.102h0.104c0,0.033,0.005,0.064,0.005,0.101h0.104c0,0.033,0.004,0.065,0.004,0.101h0.104      c0,0.032,0.005,0.065,0.005,0.1h0.105c0,0.033,0.005,0.066,0.005,0.102h0.104c0,0.033,0.004,0.064,0.004,0.1h0.104      c0,0.033,0.005,0.064,0.005,0.101h0.104c0,0.033,0.006,0.065,0.006,0.101h0.104c0,0.033,0.005,0.065,0.005,0.102h0.104      c0,0.031,0.005,0.064,0.005,0.098h0.13c0,0.035,0.005,0.066,0.005,0.103h0.104c0,0.032,0.004,0.065,0.004,0.1h0.104      c0,0.033,0.007,0.065,0.007,0.101h0.104c0,0.033,0.005,0.065,0.005,0.102h0.104c0,0.032,0.004,0.064,0.004,0.1h0.104      c0,0.033,0.005,0.066,0.005,0.101h0.104c0,0.032,0.006,0.065,0.006,0.1h0.104c0,0.033,0.004,0.066,0.004,0.101h0.104      c0,0.033,0.005,0.065,0.005,0.102h0.105c0,0.032,0.004,0.064,0.004,0.1h0.104c0,0.033,0.005,0.066,0.005,0.101H61.7      c0,0.032,0.005,0.065,0.005,0.1h0.104c0,0.033,0.006,0.066,0.006,0.101h0.104c0,0.033,0.005,0.065,0.005,0.102h0.104      c0,0.032,0.007,0.064,0.007,0.1h0.104c0,0.033,0.006,0.066,0.006,0.102h0.104c0,0.033,0.005,0.064,0.005,0.102h0.104      c0,0.032,0.006,0.063,0.006,0.098h0.104c0,0.035,0.006,0.065,0.006,0.102h0.104c0,0.033,0.005,0.066,0.005,0.1h0.104      c0,0.033,0.004,0.066,0.004,0.102h0.105c0,0.033,0.005,0.064,0.005,0.102h0.104c0,0.032,0.005,0.064,0.005,0.1h0.104      c0,0.033,0.004,0.066,0.004,0.1h0.104c0,0.033,0.005,0.066,0.005,0.1h0.104c0,0.033,0.004,0.066,0.004,0.102h0.104      c0,0.033,0.005,0.064,0.005,0.102h0.104c0,0.032,0.005,0.064,0.005,0.1h0.105c0,0.033,0.004,0.066,0.004,0.1h0.104      c0,0.033,0.005,0.066,0.005,0.1h0.104c0,0.033,0.006,0.066,0.006,0.102h0.104c0,0.033,0.006,0.064,0.006,0.102h0.104      c0,0.032,0.005,0.064,0.005,0.1h0.104c0,0.033,0.006,0.066,0.006,0.102h0.104c0,0.032,0.007,0.065,0.007,0.1h0.104      c0,0.033,0.005,0.064,0.005,0.1h0.104c0,0.034,0.004,0.064,0.004,0.102h0.104c0,0.032,0.005,0.065,0.005,0.101h0.104      c0,0.032,0.006,0.065,0.006,0.101h0.104c0,0.032,0.006,0.065,0.006,0.1h0.104c0,0.033,0.005,0.066,0.005,0.101h0.104      c0,0.033,0.004,0.065,0.004,0.101h4.334c0-1.59-0.231-3.121-0.633-4.584h0.029c0.001,0.031,0.003,0.064,0.003,0.1h0.106      c0,0.033,0.003,0.066,0.003,0.102h0.106c0,0.032,0.002,0.065,0.002,0.1h0.106c0.001,0.033,0.003,0.064,0.003,0.1h0.105      c0,0.034,0.002,0.064,0.002,0.102h0.106c0.001,0.033,0.003,0.065,0.003,0.101h0.107c0.001,0.032,0.003,0.065,0.003,0.101h0.106      c0,0.032,0.002,0.065,0.002,0.101h0.105c0.001,0.032,0.003,0.065,0.003,0.1h0.106c0,0.033,0.002,0.066,0.002,0.101h0.107      c0,0.033,0.002,0.065,0.002,0.101h0.106c0.001,0.032,0.003,0.065,0.003,0.101h0.105c0.002,0.032,0.004,0.065,0.004,0.101h0.105      c0.001,0.032,0.003,0.065,0.003,0.1h0.106c0,0.033,0.003,0.066,0.003,0.101h0.104c0.002,0.033,0.004,0.065,0.004,0.101h0.105      c0.001,0.032,0.003,0.065,0.003,0.101h0.106c0.002,0.032,0.004,0.065,0.004,0.101h0.104c0.002,0.032,0.004,0.065,0.004,0.1      h0.105c0.001,0.033,0.003,0.066,0.003,0.103H70.9c0.002,0.031,0.004,0.064,0.004,0.1h0.104c0.003,0.033,0.005,0.064,0.005,0.1      h0.104c0.001,0.032,0.003,0.065,0.003,0.101h0.105c0,0.032,0.002,0.065,0.002,0.101h0.107c0.001,0.033,0.003,0.065,0.003,0.102      h0.106c0,0.031,0.003,0.064,0.003,0.1h0.106c0,0.033,0.002,0.066,0.002,0.1h0.105c0.001,0.033,0.003,0.066,0.003,0.101H71.8      c0.001,0.032,0.003,0.065,0.003,0.101h0.107c0.001,0.033,0.003,0.065,0.003,0.102h0.106c0,0.031,0.002,0.064,0.002,0.1h0.105      c0.001,0.033,0.003,0.066,0.003,0.1h0.104c0.002,0.033,0.005,0.066,0.005,0.101h0.106c0,0.033,0.002,0.065,0.002,0.101h0.106      c0.001,0.033,0.003,0.065,0.003,0.102h0.105c0.002,0.031,0.004,0.064,0.004,0.1h0.104c0.001,0.033,0.003,0.066,0.003,0.1h0.107      c0.001,0.035,0.003,0.066,0.003,0.103h0.104c0.002,0.033,0.004,0.065,0.004,0.101h0.105c0.001,0.032,0.003,0.063,0.003,0.1      h0.106c0.002,0.033,0.004,0.064,0.004,0.101h0.104c0.002,0.032,0.005,0.065,0.005,0.101h0.104      c0.001,0.033,0.003,0.065,0.003,0.101h0.105c0,0.033,0.002,0.065,0.002,0.101h0.106c0.001,0.032,0.003,0.065,0.003,0.1h0.107      c0,0.033,0.003,0.066,0.003,0.102H78V75z" fill="url(#SVGID_4_)"/></g></g></g></g><g id="_x2E__x29__x29_"><circle cx="22.467" cy="41.533" fill="#FFFFFF" id="Dot__x28____x29_" r="3.467"/><path d="M19,19v4.333c11.966,0,21.667,9.701,21.667,21.667H45C45,30.641,33.359,19,19,19z" fill="#FFFFFF" id="Line__x29__1_"/><path d="M19,27.667V32c7.179,0,13,5.82,13,13h4.333C36.333,35.428,28.573,27.667,19,27.667z" fill="#FFFFFF" id="Line__x29_"/></g></svg>