<svg height="512pt" viewBox="0 0 512 512" width="512pt" xmlns="http://www.w3.org/2000/svg" xmlns:xlink="http://www.w3.org/1999/xlink"><linearGradient id="a" gradientUnits="userSpaceOnUse" x1="74.9807" x2="437.0193" y1="74.9807" y2="437.0193"><stop offset="0" stop-color="#ff6"/><stop offset="1" stop-color="#ffca47"/></linearGradient><linearGradient id="b" gradientUnits="userSpaceOnUse" x1="117" x2="395" y1="346.5898" y2="346.5898"><stop offset="0" stop-color="#cfe0e3"/><stop offset="1" stop-color="#70a2aa"/></linearGradient><linearGradient id="c" gradientUnits="userSpaceOnUse" x1="117" x2="395" y1="223.8789" y2="223.8789"><stop offset="0" stop-color="#0d4a55"/><stop offset="1" stop-color="#093239"/></linearGradient><linearGradient id="d" gradientUnits="userSpaceOnUse" x1="133.2891" x2="378.7109" y1="362.8789" y2="362.8789"><stop offset="0" stop-color="#70a2aa"/><stop offset="1" stop-color="#116371"/></linearGradient><path d="m512 256c0 141.386719-114.613281 256-256 256s-256-114.613281-256-256 114.613281-256 256-256 256 114.613281 256 256zm0 0" fill="url(#a)"/><path d="m256 303.363281v-6.183593l-14.578125 3.417968-18-3.417968 2.335937 7.089843-108.757812 25.488281v66.242188h278v-66.242188zm0 0" fill="url(#b)"/><path d="m117 118h278v211.757812h-278zm0 0" fill="url(#c)"/><path d="m133.289062 346.046875h245.421876v33.664063h-245.421876zm0 0" fill="url(#d)"/><path d="m149.578125 150.578125h57.554687v16.289063h-57.554687zm0 0" fill="#ff6"/><path d="m223.421875 150.578125h16.289063v16.289063h-16.289063zm0 0" fill="#ffd15e"/><path d="m149.578125 183.15625h57.554687v16.289062h-57.554687zm0 0" fill="#60d9ce"/><path d="m223.421875 183.15625h16.289063v16.289062h-16.289063zm0 0" fill="#4bb3a4"/><path d="m149.578125 215.734375h57.554687v16.289063h-57.554687zm0 0" fill="#ff6"/><path d="m223.421875 215.734375h16.289063v16.289063h-16.289063zm0 0" fill="#ffd15e"/><path d="m149.578125 248.3125h57.554687v16.289062h-57.554687zm0 0" fill="#ff6"/><path d="m223.421875 248.3125h16.289063v16.289062h-16.289063zm0 0" fill="#ffd15e"/><path d="m149.578125 280.890625h57.554687v16.289063h-57.554687zm0 0" fill="#ff6"/><path d="m223.421875 280.890625h16.289063v16.289063h-16.289063zm0 0" fill="#ffd15e"/><path d="m272.289062 248.3125h57.554688v16.289062h-57.554688zm0 0" fill="#4bb3a4"/><path d="m346.132812 248.3125h16.289063v16.289062h-16.289063zm0 0" fill="#407069"/><path d="m272.289062 280.890625h57.554688v16.289063h-57.554688zm0 0" fill="#4bb3a4"/><path d="m346.132812 280.890625h16.289063v16.289063h-16.289063zm0 0" fill="#407069"/><path d="m302.332031 223.878906h-30.042969v-40.722656h49.925782zm0 0" fill="#ffa07d"/><path d="m362.421875 223.878906h-30.042969l-19.882812-57.011718h49.925781zm0 0" fill="#ff6126"/><path d="m302.332031 150.578125h30.046875v73.300781h-30.046875zm0 0" fill="#ff8151"/></svg>