<?xml version="1.0" ?><!DOCTYPE svg  PUBLIC '-//W3C//DTD SVG 1.1//EN'  'http://www.w3.org/Graphics/SVG/1.1/DTD/svg11.dtd'><svg enable-background="new 0 0 64 64" height="64px" id="Twitch" version="1.1" viewBox="0 0 64 64" width="64px" xml:space="preserve" xmlns="http://www.w3.org/2000/svg" xmlns:xlink="http://www.w3.org/1999/xlink"><linearGradient gradientTransform="matrix(1 0 0 1 -2192 -2908)" gradientUnits="userSpaceOnUse" id="Circle_Shadow_1_" x1="2256.0293" x2="2224.03" y1="2972" y2="2940.0007"><stop offset="0.3163" style="stop-color:#FFFFFF;stop-opacity:0"/><stop offset="0.3508" style="stop-color:#E9E9E9;stop-opacity:0.0504"/><stop offset="0.4543" style="stop-color:#ACACAC;stop-opacity:0.2018"/><stop offset="0.5572" style="stop-color:#787878;stop-opacity:0.3523"/><stop offset="0.6569" style="stop-color:#4D4D4D;stop-opacity:0.4981"/><stop offset="0.7528" style="stop-color:#2B2B2B;stop-opacity:0.6385"/><stop offset="0.8441" style="stop-color:#131313;stop-opacity:0.7719"/><stop offset="0.9286" style="stop-color:#050505;stop-opacity:0.8956"/><stop offset="1" style="stop-color:#000000"/></linearGradient><polygon enable-background="new    " fill="url(#Circle_Shadow_1_)" id="Circle_Shadow" opacity="0.2" points="64.029,64   64.029,30.059 49,15.029 15.059,48.971 30.088,64 "/><circle cx="32" cy="32" fill="#6441A5" id="Circle" r="24"/><g id="_x7C__x7C__Shadow"><g><defs><circle cx="32.029" cy="32" id="SVGID_1_" r="24"/></defs><clipPath id="SVGID_2_"><use overflow="visible" xlink:href="#SVGID_1_"/></clipPath><linearGradient gradientTransform="matrix(1 0 0 -1 -274 -299)" gradientUnits="userSpaceOnUse" id="SVGID_3_" x1="347.501" x2="293.5012" y1="-370.4985" y2="-316.4988"><stop offset="0.4949" style="stop-color:#000000;stop-opacity:0"/><stop offset="0.6174" style="stop-color:#000000"/></linearGradient><polygon clip-path="url(#SVGID_2_)" enable-background="new    " fill="url(#SVGID_3_)" opacity="0.3" points="77.895,49     77.895,48.895 77.787,48.895 77.787,48.787 77.682,48.787 77.682,48.682 77.575,48.682 77.575,48.575 77.469,48.575     77.469,48.469 77.361,48.469 77.361,48.361 77.256,48.361 77.256,48.256 77.148,48.256 77.148,48.148 77.043,48.148     77.043,48.043 76.938,48.043 76.938,47.938 76.831,47.938 76.831,47.83 76.725,47.83 76.725,47.725 76.618,47.725 76.618,47.618     76.512,47.618 76.512,47.512 76.404,47.512 76.404,47.404 76.299,47.404 76.299,47.299 76.191,47.299 76.191,47.191     76.087,47.191 76.087,47.086 75.98,47.086 75.98,46.98 75.874,46.98 75.874,46.874 75.768,46.874 75.768,46.768 75.661,46.768     75.661,46.661 75.555,46.661 75.555,46.555 75.448,46.555 75.448,46.448 75.343,46.448 75.343,46.342 75.236,46.342     75.236,46.236 75.129,46.236 75.129,46.13 75.023,46.13 75.023,46.023 74.917,46.023 74.917,45.917 74.811,45.917 74.811,45.811     74.704,45.811 74.704,45.704 74.598,45.704 74.598,45.6 74.492,45.6 74.492,45.491 74.385,45.491 74.385,45.386 74.279,45.386     74.279,45.279 74.173,45.279 74.173,45.173 74.066,45.173 74.066,45.066 73.96,45.066 73.96,44.96 73.854,44.96 73.854,44.854     73.748,44.854 73.748,44.747 73.641,44.747 73.641,44.641 73.535,44.641 73.535,44.535 73.43,44.535 73.43,44.43 73.322,44.43     73.322,44.322 73.216,44.322 73.216,44.216 73.109,44.216 73.109,44.109 73.004,44.109 73.004,44.004 72.896,44.004     72.896,43.896 72.791,43.896 72.791,43.791 72.686,43.791 72.686,43.686 72.578,43.686 72.578,43.578 72.473,43.578     72.473,43.473 72.365,43.473 72.365,43.365 72.26,43.365 72.26,43.26 72.152,43.26 72.152,43.152 72.047,43.152 72.047,43.047     71.939,43.047 71.939,42.939 71.834,42.939 71.834,42.834 71.729,42.834 71.729,42.729 71.621,42.729 71.621,42.621     71.516,42.621 71.516,42.516 71.408,42.516 71.408,42.409 71.302,42.409 71.302,42.303 71.195,42.303 71.195,42.195 71.09,42.195     71.09,42.09 70.982,42.09 70.982,41.982 70.877,41.982 70.877,41.877 70.771,41.877 70.771,41.771 70.664,41.771 70.664,41.665     70.559,41.665 70.559,41.559 70.452,41.559 70.452,41.452 70.346,41.452 70.346,41.346 70.238,41.346 70.238,41.239     70.133,41.239 70.133,41.133 70.027,41.133 70.027,41.025 69.92,41.025 69.92,40.92 69.813,40.92 69.813,40.814 69.708,40.814     69.708,40.707 69.602,40.707 69.602,40.602 69.495,40.602 69.495,40.495 69.389,40.495 69.389,40.389 69.282,40.389     69.282,40.282 69.176,40.282 69.176,40.176 69.068,40.176 69.068,40.07 68.964,40.07 68.964,39.963 68.857,39.963 68.857,39.857     68.751,39.857 68.751,39.751 68.645,39.751 68.645,39.645 68.538,39.645 68.538,39.538 68.432,39.538 68.432,39.432     68.325,39.432 68.325,39.326 68.221,39.326 68.221,39.221 68.113,39.221 68.113,39.113 68.006,39.113 68.006,39.007 67.9,39.007     67.9,38.9 67.794,38.9 67.794,38.794 67.688,38.794 67.688,38.688 67.581,38.688 67.581,38.582 67.477,38.582 67.477,38.477     67.369,38.477 67.369,38.369 67.262,38.369 67.262,38.264 67.156,38.264 67.156,38.156 67.05,38.156 67.05,38.05 66.943,38.05     66.943,37.943 66.837,37.943 66.837,37.837 66.73,37.837 66.73,37.73 66.625,37.73 66.625,37.625 66.518,37.625 66.518,37.518     66.412,37.518 66.412,37.412 66.307,37.412 66.307,37.307 66.199,37.307 66.199,37.199 66.093,37.199 66.093,37.093     65.986,37.093 65.986,36.986 65.881,36.986 65.881,36.881 65.773,36.881 65.773,36.773 65.668,36.773 65.668,36.668     65.563,36.668 65.563,36.563 65.455,36.563 65.455,36.455 65.35,36.455 65.35,36.35 65.242,36.35 65.242,36.242 65.137,36.242     65.137,36.137 65.029,36.137 65.029,36.029 64.924,36.029 64.924,35.924 64.816,35.924 64.816,35.816 64.711,35.816     64.711,35.711 64.604,35.711 64.604,35.605 64.498,35.605 64.498,35.498 64.393,35.498 64.393,35.393 64.285,35.393     64.285,35.286 64.18,35.286 64.18,35.18 64.073,35.18 64.073,35.073 63.967,35.073 63.967,34.967 63.859,34.967 63.859,34.859     63.754,34.859 63.754,34.754 63.648,34.754 63.648,34.646 63.541,34.646 63.541,34.542 63.436,34.542 63.436,34.436     63.329,34.436 63.329,34.329 63.223,34.329 63.223,34.223 63.116,34.223 63.116,34.116 63.01,34.116 63.01,34.01 62.904,34.01     62.904,33.902 62.797,33.902 62.797,33.797 62.691,33.797 62.691,33.691 62.585,33.691 62.585,33.585 62.479,33.585     62.479,33.479 62.372,33.479 62.372,33.372 62.266,33.372 62.266,33.266 62.16,33.266 62.16,33.159 62.053,33.159 62.053,33.053     61.947,33.053 61.947,32.945 61.841,32.945 61.841,32.841 61.734,32.841 61.734,32.734 61.628,32.734 61.628,32.628     61.521,32.628 61.521,32.521 61.415,32.521 61.415,32.415 61.311,32.415 61.311,32.31 61.203,32.31 61.203,32.203 61.098,32.203     61.098,32.097 60.99,32.097 60.99,31.99 60.884,31.99 60.884,31.884 60.777,31.884 60.777,31.777 60.671,31.777 60.671,31.671     60.564,31.671 60.564,31.564 60.459,31.564 60.459,31.459 60.354,31.459 60.354,31.352 60.246,31.352 60.246,31.246     60.141,31.246 60.141,31.14 60.033,31.14 60.033,31.033 59.927,31.033 59.927,30.927 59.82,30.927 59.82,30.82 59.715,30.82     59.715,30.715 59.607,30.715 59.607,30.608 59.502,30.608 59.502,30.502 59.395,30.502 59.395,30.395 59.289,30.395     59.289,30.289 59.184,30.289 59.184,30.183 59.076,30.183 59.076,30.077 58.971,30.077 58.971,29.97 58.863,29.97 58.863,29.864     58.758,29.864 58.758,29.758 58.65,29.758 58.65,29.651 58.545,29.651 58.545,29.545 58.438,29.545 58.438,29.438 58.332,29.438     58.332,29.333 58.227,29.333 58.227,29.226 58.119,29.226 58.119,29.12 58.014,29.12 58.014,29.013 57.907,29.013 57.907,28.907     57.801,28.907 57.801,28.801 57.693,28.801 57.693,28.694 57.588,28.694 57.588,28.588 57.482,28.588 57.482,28.482     57.376,28.482 57.376,28.375 57.27,28.375 57.27,28.269 57.162,28.269 57.162,28.163 57.057,28.163 57.057,28.057 56.95,28.057     56.95,27.95 56.844,27.95 56.844,27.844 56.738,27.844 56.738,27.738 56.632,27.738 56.632,27.631 56.523,27.631 56.523,27.525     56.418,27.525 56.418,27.418 56.313,27.418 56.313,27.313 56.206,27.313 56.206,27.206 56.1,27.206 56.1,27.1 55.993,27.1     55.993,26.993 55.887,26.993 55.887,26.887 55.781,26.887 55.781,26.781 55.674,26.781 55.674,26.674 55.568,26.674     55.568,26.568 55.462,26.568 55.462,26.462 55.355,26.462 55.355,26.356 55.249,26.356 55.249,26.249 55.143,26.249     55.143,26.143 55.036,26.143 55.036,26.036 54.932,26.036 54.932,25.931 54.824,25.931 54.824,25.824 54.718,25.824     54.718,25.718 54.611,25.718 54.611,25.611 54.506,25.611 54.506,25.505 54.398,25.505 54.398,25.399 54.292,25.399     54.292,25.292 54.186,25.292 54.186,25.187 54.08,25.187 54.08,25.08 53.975,25.08 53.975,24.974 53.867,24.974 53.867,24.867     53.762,24.867 53.762,24.761 53.654,24.761 53.654,24.654 53.548,24.654 53.548,24.548 53.441,24.548 53.441,24.442     53.336,24.442 53.336,24.335 53.229,24.335 53.229,24.229 53.123,24.229 53.123,24.123 53.018,24.123 53.018,24.017 52.91,24.017     52.91,23.91 52.805,23.91 52.805,23.804 52.697,23.804 52.697,23.698 52.592,23.698 52.592,23.592 52.484,23.592 52.484,23.485     52.379,23.485 52.379,23.379 52.271,23.379 52.271,23.272 52.166,23.272 52.166,23.166 52.061,23.166 52.061,23.06 51.953,23.06     51.953,22.953 51.848,22.953 51.848,22.847 51.741,22.847 51.741,22.741 51.635,22.741 51.635,22.635 51.527,22.635     51.527,22.528 51.422,22.528 51.422,22.422 51.314,22.422 51.314,22.315 51.209,22.315 51.209,22.209 51.104,22.209     51.104,22.103 50.997,22.103 50.997,21.997 50.891,21.997 50.891,21.89 50.784,21.89 50.784,21.784 50.678,21.784 50.678,21.678     50.57,21.678 50.57,21.572 50.465,21.572 50.465,21.465 50.357,21.465 50.357,21.359 50.252,21.359 50.252,21.252 50.146,21.252     50.146,21.146 50.04,21.146 50.04,21.04 49.934,21.04 49.934,20.934 49.827,20.934 49.827,20.828 49.721,20.828 49.721,20.721     49.613,20.721 49.613,20.615 49.508,20.615 49.508,20.508 49.402,20.508 49.402,20.402 49.296,20.402 49.296,20.296     49.189,20.296 49.189,20.189 49.083,20.189 49.083,20.083 48.977,20.083 48.977,19.977 48.871,19.977 48.871,19.871     48.766,19.871 48.766,19.764 48.658,19.764 48.658,19.658 48.551,19.658 48.551,19.551 48.445,19.551 48.445,19.445     48.339,19.445 48.339,19.339 48.232,19.339 48.232,19.232 48.127,19.232 48.127,19.126 48.021,19.126 48.021,19.02 47.914,19.02     47.914,18.914 47.807,18.914 47.807,18.807 47.7,18.807 47.7,18.701 47.596,18.701 47.596,18.595 47.488,18.595 47.488,18.489     47.382,18.489 47.382,18.382 47.275,18.382 47.275,18.276 47.17,18.276 47.17,18.169 47.063,18.169 47.063,18.063 46.957,18.063     46.957,17.957 46.852,17.957 46.852,17.851 46.744,17.851 46.744,17.744 46.639,17.744 46.639,17.638 46.531,17.638     46.531,17.531 46.426,17.531 46.426,17.426 46.318,17.426 46.318,17.319 46.213,17.319 46.213,17.213 46.105,17.213     46.105,17.106 46,17.106 46,17 20,17 18,22.132 18,43 18.106,43 18.106,43.105 18.212,43.105 18.212,43.213 18.319,43.213     18.319,43.318 18.426,43.318 18.426,43.426 18.531,43.426 18.531,43.531 18.638,43.531 18.638,43.639 18.745,43.639     18.745,43.744 18.85,43.744 18.85,43.85 18.957,43.85 18.957,43.957 19.063,43.957 19.063,44.063 19.169,44.063 19.169,44.17     19.276,44.17 19.276,44.275 19.382,44.275 19.382,44.382 19.488,44.382 19.488,44.488 19.595,44.488 19.595,44.596 19.701,44.596     19.701,44.701 19.807,44.701 19.807,44.807 19.914,44.807 19.914,44.914 20.021,44.914 20.021,45.021 20.126,45.021     20.126,45.127 20.232,45.127 20.232,45.232 20.339,45.232 20.339,45.339 20.445,45.339 20.445,45.445 20.551,45.445     20.551,45.551 20.657,45.551 20.657,45.658 20.764,45.658 20.764,45.764 20.871,45.764 20.871,45.87 20.977,45.87 20.977,45.979     21.083,45.979 21.083,46.083 21.189,46.083 21.189,46.189 21.296,46.189 21.296,46.296 21.402,46.296 21.402,46.402     21.508,46.402 21.508,46.508 21.614,46.508 21.614,46.614 21.721,46.614 21.721,46.723 21.828,46.723 21.828,46.827     21.933,46.827 21.933,46.934 22.04,46.934 22.04,47.04 22.146,47.04 22.146,47.146 22.252,47.146 22.252,47.252 22.359,47.252     22.359,47.357 22.465,47.357 22.465,47.465 22.571,47.465 22.571,47.57 22.678,47.57 22.678,47.678 22.784,47.678 22.784,47.784     22.89,47.784 22.89,47.891 22.997,47.891 22.997,47.997 23.103,47.997 23.103,48.104 23.209,48.104 23.209,48.209 23.315,48.209     23.315,48.314 23.422,48.314 23.422,48.422 23.528,48.422 23.528,48.527 23.635,48.527 23.635,48.635 23.741,48.635     23.741,48.741 23.847,48.741 23.847,48.848 23.953,48.848 23.953,48.953 24.06,48.953 24.06,49.061 24.166,49.061 24.166,49.166     24.272,49.166 24.272,49.271 24.379,49.271 24.379,49.379 24.485,49.379 24.485,49.484 24.591,49.484 24.591,49.592     24.698,49.592 24.698,49.697 24.804,49.697 24.804,49.805 24.91,49.805 24.91,49.91 25.017,49.91 25.017,50.018 25.123,50.018     25.123,50.123 25.229,50.123 25.229,50.229 25.335,50.229 25.335,50.335 25.442,50.335 25.442,50.441 25.548,50.441     25.548,50.549 25.654,50.549 25.654,50.654 25.761,50.654 25.761,50.761 25.867,50.761 25.867,50.867 25.974,50.867     25.974,50.975 26.08,50.975 26.08,51.08 26.187,51.08 26.187,51.186 26.292,51.186 26.292,51.293 26.398,51.293 26.398,51.398     26.505,51.398 26.505,51.506 26.611,51.506 26.611,51.611 26.718,51.611 26.718,51.718 26.824,51.718 26.824,51.824     26.931,51.824 26.931,51.932 27.037,51.932 27.037,52.036 27.143,52.036 27.143,52.143 27.249,52.143 27.249,52.25 27.355,52.25     27.355,52.355 27.462,52.355 27.462,52.462 27.568,52.462 27.568,52.568 27.675,52.568 27.675,52.675 27.781,52.675     27.781,52.781 27.887,52.781 27.887,52.887 27.993,52.887 27.993,52.993 28.1,52.993 28.1,53.1 28.206,53.1 28.206,53.207     28.313,53.207 28.313,53.313 28.419,53.313 28.419,53.418 28.525,53.418 28.525,53.525 28.632,53.525 28.632,53.632     28.737,53.632 28.737,53.736 28.844,53.736 28.844,53.844 28.95,53.844 28.95,53.95 29.057,53.95 29.057,54.057 29.163,54.057     29.163,54.163 29.269,54.163 29.269,54.27 29.375,54.27 29.375,54.376 29.482,54.376 29.482,54.482 29.588,54.482 29.588,54.588     29.694,54.588 29.694,54.693 29.801,54.693 29.801,54.801 29.907,54.801 29.907,54.907 30.013,54.907 30.013,55.014     30.119,55.014 30.119,55.119 30.226,55.119 30.226,55.227 30.332,55.227 30.332,55.333 30.438,55.333 30.438,55.438     30.545,55.438 30.545,55.545 30.651,55.545 30.651,55.65 30.758,55.65 30.758,55.758 30.864,55.758 30.864,55.863 30.97,55.863     30.97,55.971 31.076,55.971 31.076,56.076 31.183,56.076 31.183,56.184 31.289,56.184 31.289,56.289 31.396,56.289 31.396,56.395     31.502,56.395 31.502,56.502 31.608,56.502 31.608,56.607 31.714,56.607 31.714,56.715 31.82,56.715 31.82,56.82 31.927,56.82     31.927,56.927 32.034,56.927 32.034,57.033 32.14,57.033 32.14,57.141 32.246,57.141 32.246,57.246 32.353,57.246 32.353,57.352     32.459,57.352 32.459,57.459 32.564,57.459 32.564,57.564 32.671,57.564 32.671,57.671 32.777,57.671 32.777,57.777     32.884,57.777 32.884,57.884 32.99,57.884 32.99,57.99 33.096,57.99 33.096,58.096 33.203,58.096 33.203,58.203 33.311,58.203     33.311,58.309 33.415,58.309 33.415,58.416 33.521,58.416 33.521,58.521 33.628,58.521 33.628,58.628 33.734,58.628     33.734,58.734 33.841,58.734 33.841,58.841 33.947,58.841 33.947,58.947 34.055,58.947 34.055,59.053 34.16,59.053 34.16,59.16     34.266,59.16 34.266,59.266 34.372,59.266 34.372,59.372 34.479,59.372 34.479,59.479 34.585,59.479 34.585,59.585 34.691,59.585     34.691,59.691 34.797,59.691 34.797,59.797 34.902,59.797 34.902,59.902 35.01,59.902 35.01,60.01 35.116,60.01 35.116,60.116     35.223,60.116 35.223,60.223 35.329,60.223 35.329,60.329 35.436,60.329 35.436,60.436 35.542,60.436 35.542,60.541     35.648,60.541 35.648,60.646 35.754,60.646 35.754,60.754 35.859,60.754 35.859,60.859 35.967,60.859 35.967,60.967     36.073,60.967 36.073,61.073 36.18,61.073 36.18,61.18 36.285,61.18 36.285,61.285 36.393,61.285 36.393,61.393 36.498,61.393     36.498,61.498 36.604,61.498 36.604,61.604 36.711,61.604 36.711,61.711 36.816,61.711 36.816,61.816 36.924,61.816     36.924,61.924 37.029,61.924 37.029,62.029 37.137,62.029 37.137,62.137 37.242,62.137 37.242,62.242 37.35,62.242 37.35,62.35     37.455,62.35 37.455,62.455 37.563,62.455 37.563,62.563 37.668,62.563 37.668,62.668 37.773,62.668 37.773,62.773 37.881,62.773     37.881,62.881 37.986,62.881 37.986,62.986 38.093,62.986 38.093,63.093 38.199,63.093 38.199,63.199 38.307,63.199     38.307,63.307 38.412,63.307 38.412,63.412 38.52,63.412 38.52,63.52 38.625,63.52 38.625,63.625 38.73,63.625 38.73,63.73     38.838,63.73 38.838,63.837 38.943,63.837 38.943,63.943 39.05,63.943 39.05,64.05 39.156,64.05 39.156,64.156 39.264,64.156     39.264,64.264 39.369,64.264 39.369,64.369 39.475,64.369 39.475,64.475 39.581,64.475 39.581,64.582 39.688,64.582     39.688,64.688 39.794,64.688 39.794,64.794 39.9,64.794 39.9,64.9 40.006,64.9 40.006,65.007 40.113,65.007 40.113,65.113     40.221,65.113 40.221,65.221 40.326,65.221 40.326,65.326 40.432,65.326 40.432,65.432 40.538,65.432 40.538,65.538     40.645,65.538 40.645,65.645 40.751,65.645 40.751,65.751 40.857,65.751 40.857,65.857 40.963,65.857 40.963,65.964 41.07,65.964     41.07,66.07 41.176,66.07 41.176,66.176 41.282,66.176 41.282,66.282 41.389,66.282 41.389,66.389 41.495,66.389 41.495,66.495     41.602,66.495 41.602,66.602 41.708,66.602 41.708,66.708 41.814,66.708 41.814,66.814 41.92,66.814 41.92,66.92 42.025,66.92     42.025,67.025 42.133,67.025 42.133,67.133 42.238,67.133 42.238,67.239 42.346,67.239 42.346,67.346 42.452,67.346     42.452,67.452 42.559,67.452 42.559,67.559 42.664,67.559 42.664,67.664 42.771,67.664 42.771,67.771 42.877,67.771     42.877,67.877 42.982,67.877 42.982,67.982 43.09,67.982 43.09,68.09 43.195,68.09 43.195,68.195 43.303,68.195 43.303,68.302     43.409,68.302 43.409,68.409 43.516,68.409 43.516,68.516 43.621,68.516 43.621,68.621 43.729,68.621 43.729,68.729     43.834,68.729 43.834,68.834 43.939,68.834 43.939,68.939 44.047,68.939 44.047,69.047 44.152,69.047 44.152,69.152     44.259,69.152 44.259,69.259 44.365,69.259 44.365,69.365 44.473,69.365 44.473,69.473 44.578,69.473 44.578,69.578     44.686,69.578 44.686,69.686 44.791,69.686 44.791,69.791 44.896,69.791 44.896,69.896 45.004,69.896 45.004,70.003     45.109,70.003 45.109,70.109 45.216,70.109 45.216,70.216 45.322,70.216 45.322,70.322 45.43,70.322 45.43,70.43 45.535,70.43     45.535,70.535 45.641,70.535 45.641,70.641 45.747,70.641 45.747,70.747 45.854,70.747 45.854,70.854 45.96,70.854 45.96,70.96     46.066,70.96 46.066,71.066 46.173,71.066 46.173,71.173 46.279,71.173 46.279,71.279 46.387,71.279 46.387,71.385 46.492,71.385     46.492,71.491 46.598,71.491 46.598,71.6 46.704,71.6 46.704,71.704 46.811,71.704 46.811,71.811 46.917,71.811 46.917,71.917     47.023,71.917 47.023,72.023 47.13,72.023 47.13,72.129 47.234,72.129 47.234,72.236 47.342,72.236 47.342,72.342 47.448,72.342     47.448,72.448 47.555,72.448 47.555,72.555 47.661,72.555 47.661,72.661 47.768,72.661 47.768,72.768 47.874,72.768     47.874,72.874 47.98,72.874 47.98,72.98 48.087,72.98 48.087,73.086 48.191,73.086 48.191,73.191 48.299,73.191 48.299,73.299     48.404,73.299 48.404,73.404 48.512,73.404 48.512,73.512 48.618,73.512 48.618,73.618 48.725,73.618 48.725,73.725 48.83,73.725     48.83,73.83 48.938,73.83 48.938,73.938 49.043,73.938 49.043,74.043 49.148,74.043 49.148,74.148 49.256,74.148 49.256,74.256     49.361,74.256 49.361,74.361 49.469,74.361 49.469,74.469 49.575,74.469 49.575,74.574 49.682,74.574 49.682,74.682     49.787,74.682 49.787,74.787 49.895,74.787 49.895,74.895 50,74.895 50,75 53.066,75 53.066,75.066 53.173,75.066 53.173,75.173     53.279,75.173 53.279,75.279 53.385,75.279 53.385,75.386 53.492,75.386 53.492,75.491 53.598,75.491 53.598,75.598     53.704,75.598 53.704,75.704 53.811,75.704 53.811,75.811 53.917,75.811 53.917,75.917 54.023,75.917 54.023,76.023 54.13,76.023     54.13,76.13 54.236,76.13 54.236,76.236 54.343,76.236 54.343,76.342 54.448,76.342 54.448,76.448 54.555,76.448 54.555,76.555     54.661,76.555 54.661,76.661 54.768,76.661 54.768,76.768 54.874,76.768 54.874,76.874 54.98,76.874 54.98,76.98 55.086,76.98     55.086,77.086 55.191,77.086 55.191,77.191 55.299,77.191 55.299,77.299 55.404,77.299 55.404,77.404 55.512,77.404     55.512,77.512 55.618,77.512 55.618,77.618 55.725,77.618 55.725,77.725 55.83,77.725 55.83,77.831 55.938,77.831 55.938,77.938     56.043,77.938 56.043,78.043 56.148,78.043 56.148,78.148 56.256,78.148 56.256,78.256 56.361,78.256 56.361,78.361     56.469,78.361 56.469,78.469 56.574,78.469 56.574,78.574 56.682,78.574 56.682,78.682 56.787,78.682 56.787,78.787     56.895,78.787 56.895,78.895 57,78.895 57,79 61,79 64,75 70,75 78,67 78,49   "/></g></g><g id="_x7C___x7C_"><path d="M38,43h-6l-3,4h-4v-4h-7V22.132L20,17h26v18L38,43z M43,34V20H22v19h6v4l4-4h6L43,34z" fill="#FFFFFF" id="Dialog"/><rect fill="#FFFFFF" height="8" id="_x7C_" width="3" x="35" y="25"/><rect fill="#FFFFFF" height="8" id="_x7C__1_" width="3" x="29" y="25"/></g></svg>